<svg xmlns="http://www.w3.org/2000/svg" opacity="0.3" version="1.1" xmlns:xlink="http://www.w3.org/1999/xlink" xmlns:svgjs="http://svgjs.dev/svgjs" width="1440" height="560" preserveAspectRatio="none" viewBox="0 0 1440 560"><g mask="url(&quot;#SvgjsMask1010&quot;)" fill="none"><path d="M-42.18 399.78L-42.18 399.78" stroke="rgba(141, 147, 144, 1)" stroke-width="1.5"></path><path d="M-42.18 399.78L41.82 406.32" stroke="rgba(141, 147, 144, 1)" stroke-width="1.5"></path><path d="M-42.18 399.78L-91.67 512.3" stroke="rgba(141, 147, 144, 1)" stroke-width="1.5"></path><path d="M-42.18 399.78L85.64 520.01" stroke="rgba(141, 147, 144, 1)" stroke-width="1.5"></path><path d="M-42.18 399.78L190.77 347.31" stroke="rgba(141, 147, 144, 1)" stroke-width="1.5"></path><path d="M-42.18 399.78L199.15 541.7" stroke="rgba(141, 147, 144, 1)" stroke-width="1.5"></path><path d="M-91.67 512.3L-91.67 512.3" stroke="rgba(141, 147, 144, 1)" stroke-width="1.5"></path><path d="M-91.67 512.3L41.82 406.32" stroke="rgba(141, 147, 144, 1)" stroke-width="1.5"></path><path d="M-51.2 696.26L-51.2 696.26" stroke="rgba(141, 147, 144, 1)" stroke-width="1.5"></path><path d="M-51.2 696.26L97.87 706.3" stroke="rgba(141, 147, 144, 1)" stroke-width="1.5"></path><path d="M-51.2 696.26L-91.67 512.3" stroke="rgba(141, 147, 144, 1)" stroke-width="1.5"></path><path d="M-51.2 696.26L85.64 520.01" stroke="rgba(141, 147, 144, 1)" stroke-width="1.5"></path><path d="M-51.2 696.26L190.79 687.45" stroke="rgba(141, 147, 144, 1)" stroke-width="1.5"></path><path d="M41.82 406.32L41.82 406.32" stroke="rgba(141, 147, 144, 1)" stroke-width="1.5"></path><path d="M41.82 406.32L85.64 520.01" stroke="rgba(141, 147, 144, 1)" stroke-width="1.5"></path><path d="M85.64 520.01L85.64 520.01" stroke="rgba(141, 147, 144, 1)" stroke-width="1.5"></path><path d="M85.64 520.01L199.15 541.7" stroke="rgba(141, 147, 144, 1)" stroke-width="1.5"></path><path d="M85.64 520.01L-91.67 512.3" stroke="rgba(141, 147, 144, 1)" stroke-width="1.5"></path><path d="M97.87 706.3L97.87 706.3" stroke="rgba(141, 147, 144, 1)" stroke-width="1.5"></path><path d="M97.87 706.3L190.79 687.45" stroke="rgba(141, 147, 144, 1)" stroke-width="1.5"></path><path d="M97.87 706.3L85.64 520.01" stroke="rgba(141, 147, 144, 1)" stroke-width="1.5"></path><path d="M97.87 706.3L199.15 541.7" stroke="rgba(141, 147, 144, 1)" stroke-width="1.5"></path><path d="M97.87 706.3L-91.67 512.3" stroke="rgba(141, 147, 144, 1)" stroke-width="1.5"></path><path d="M190.77 347.31L190.77 347.31" stroke="rgba(141, 147, 144, 1)" stroke-width="1.5"></path><path d="M190.77 347.31L41.82 406.32" stroke="rgba(141, 147, 144, 1)" stroke-width="1.5"></path><path d="M190.77 347.31L199.15 541.7" stroke="rgba(141, 147, 144, 1)" stroke-width="1.5"></path><path d="M190.77 347.31L85.64 520.01" stroke="rgba(141, 147, 144, 1)" stroke-width="1.5"></path><path d="M190.77 347.31L405.12 411.85" stroke="rgba(141, 147, 144, 1)" stroke-width="1.5"></path><path d="M190.77 347.31L387.59 511.02" stroke="rgba(141, 147, 144, 1)" stroke-width="1.5"></path><path d="M199.15 541.7L199.15 541.7" stroke="rgba(141, 147, 144, 1)" stroke-width="1.5"></path><path d="M199.15 541.7L190.79 687.45" stroke="rgba(141, 147, 144, 1)" stroke-width="1.5"></path><path d="M199.15 541.7L387.59 511.02" stroke="rgba(141, 147, 144, 1)" stroke-width="1.5"></path><path d="M190.79 687.45L190.79 687.45" stroke="rgba(141, 147, 144, 1)" stroke-width="1.5"></path><path d="M190.79 687.45L85.64 520.01" stroke="rgba(141, 147, 144, 1)" stroke-width="1.5"></path><path d="M405.12 411.85L405.12 411.85" stroke="rgba(141, 147, 144, 1)" stroke-width="1.5"></path><path d="M405.12 411.85L387.59 511.02" stroke="rgba(141, 147, 144, 1)" stroke-width="1.5"></path><path d="M405.12 411.85L489.55 530.87" stroke="rgba(141, 147, 144, 1)" stroke-width="1.5"></path><path d="M405.12 411.85L545.66 352.51" stroke="rgba(141, 147, 144, 1)" stroke-width="1.5"></path><path d="M387.59 511.02L387.59 511.02" stroke="rgba(141, 147, 144, 1)" stroke-width="1.5"></path><path d="M387.59 511.02L489.55 530.87" stroke="rgba(141, 147, 144, 1)" stroke-width="1.5"></path><path d="M387.59 511.02L545.66 352.51" stroke="rgba(141, 147, 144, 1)" stroke-width="1.5"></path><path d="M387.59 511.02L540.38 682.51" stroke="rgba(141, 147, 144, 1)" stroke-width="1.5"></path><path d="M545.66 352.51L545.66 352.51" stroke="rgba(141, 147, 144, 1)" stroke-width="1.5"></path><path d="M545.66 352.51L685.86 400.87" stroke="rgba(141, 147, 144, 1)" stroke-width="1.5"></path><path d="M545.66 352.51L489.55 530.87" stroke="rgba(141, 147, 144, 1)" stroke-width="1.5"></path><path d="M545.66 352.51L689.52 232.96" stroke="rgba(141, 147, 144, 1)" stroke-width="1.5"></path><path d="M545.66 352.51L679.77 538.9" stroke="rgba(141, 147, 144, 1)" stroke-width="1.5"></path><path d="M489.55 530.87L489.55 530.87" stroke="rgba(141, 147, 144, 1)" stroke-width="1.5"></path><path d="M489.55 530.87L540.38 682.51" stroke="rgba(141, 147, 144, 1)" stroke-width="1.5"></path><path d="M540.38 682.51L540.38 682.51" stroke="rgba(141, 147, 144, 1)" stroke-width="1.5"></path><path d="M540.38 682.51L683.27 652.57" stroke="rgba(141, 147, 144, 1)" stroke-width="1.5"></path><path d="M540.38 682.51L679.77 538.9" stroke="rgba(141, 147, 144, 1)" stroke-width="1.5"></path><path d="M689.52 232.96L689.52 232.96" stroke="rgba(141, 147, 144, 1)" stroke-width="1.5"></path><path d="M689.52 232.96L831.81 202.98" stroke="rgba(141, 147, 144, 1)" stroke-width="1.5"></path><path d="M689.52 232.96L685.86 400.87" stroke="rgba(141, 147, 144, 1)" stroke-width="1.5"></path><path d="M685.86 400.87L685.86 400.87" stroke="rgba(141, 147, 144, 1)" stroke-width="1.5"></path><path d="M685.86 400.87L796.84 384.91" stroke="rgba(141, 147, 144, 1)" stroke-width="1.5"></path><path d="M685.86 400.87L679.77 538.9" stroke="rgba(141, 147, 144, 1)" stroke-width="1.5"></path><path d="M685.86 400.87L835.79 503.79" stroke="rgba(141, 147, 144, 1)" stroke-width="1.5"></path><path d="M679.77 538.9L679.77 538.9" stroke="rgba(141, 147, 144, 1)" stroke-width="1.5"></path><path d="M679.77 538.9L683.27 652.57" stroke="rgba(141, 147, 144, 1)" stroke-width="1.5"></path><path d="M679.77 538.9L835.79 503.79" stroke="rgba(141, 147, 144, 1)" stroke-width="1.5"></path><path d="M679.77 538.9L809.05 660.81" stroke="rgba(141, 147, 144, 1)" stroke-width="1.5"></path><path d="M679.77 538.9L489.55 530.87" stroke="rgba(141, 147, 144, 1)" stroke-width="1.5"></path><path d="M679.77 538.9L796.84 384.91" stroke="rgba(141, 147, 144, 1)" stroke-width="1.5"></path><path d="M683.27 652.57L683.27 652.57" stroke="rgba(141, 147, 144, 1)" stroke-width="1.5"></path><path d="M683.27 652.57L809.05 660.81" stroke="rgba(141, 147, 144, 1)" stroke-width="1.5"></path><path d="M683.27 652.57L835.79 503.79" stroke="rgba(141, 147, 144, 1)" stroke-width="1.5"></path><path d="M683.27 652.57L489.55 530.87" stroke="rgba(141, 147, 144, 1)" stroke-width="1.5"></path><path d="M831.81 202.98L831.81 202.98" stroke="rgba(141, 147, 144, 1)" stroke-width="1.5"></path><path d="M831.81 202.98L954.65 249.96" stroke="rgba(141, 147, 144, 1)" stroke-width="1.5"></path><path d="M831.81 202.98L796.84 384.91" stroke="rgba(141, 147, 144, 1)" stroke-width="1.5"></path><path d="M831.81 202.98L992.56 81.99" stroke="rgba(141, 147, 144, 1)" stroke-width="1.5"></path><path d="M831.81 202.98L685.86 400.87" stroke="rgba(141, 147, 144, 1)" stroke-width="1.5"></path><path d="M796.84 384.91L796.84 384.91" stroke="rgba(141, 147, 144, 1)" stroke-width="1.5"></path><path d="M796.84 384.91L835.79 503.79" stroke="rgba(141, 147, 144, 1)" stroke-width="1.5"></path><path d="M835.79 503.79L835.79 503.79" stroke="rgba(141, 147, 144, 1)" stroke-width="1.5"></path><path d="M835.79 503.79L961.03 544.94" stroke="rgba(141, 147, 144, 1)" stroke-width="1.5"></path><path d="M835.79 503.79L809.05 660.81" stroke="rgba(141, 147, 144, 1)" stroke-width="1.5"></path><path d="M835.79 503.79L988.91 411.82" stroke="rgba(141, 147, 144, 1)" stroke-width="1.5"></path><path d="M809.05 660.81L809.05 660.81" stroke="rgba(141, 147, 144, 1)" stroke-width="1.5"></path><path d="M809.05 660.81L944.57 700.54" stroke="rgba(141, 147, 144, 1)" stroke-width="1.5"></path><path d="M809.05 660.81L961.03 544.94" stroke="rgba(141, 147, 144, 1)" stroke-width="1.5"></path><path d="M1004.83 -50.89L1004.83 -50.89" stroke="rgba(141, 147, 144, 1)" stroke-width="1.5"></path><path d="M1004.83 -50.89L1123.8 -106.42" stroke="rgba(141, 147, 144, 1)" stroke-width="1.5"></path><path d="M1004.83 -50.89L992.56 81.99" stroke="rgba(141, 147, 144, 1)" stroke-width="1.5"></path><path d="M1004.83 -50.89L1107.22 42.6" stroke="rgba(141, 147, 144, 1)" stroke-width="1.5"></path><path d="M1004.83 -50.89L1161.94 193.77" stroke="rgba(141, 147, 144, 1)" stroke-width="1.5"></path><path d="M1004.83 -50.89L1262.2 102.09" stroke="rgba(141, 147, 144, 1)" stroke-width="1.5"></path><path d="M1004.83 -50.89L954.65 249.96" stroke="rgba(141, 147, 144, 1)" stroke-width="1.5"></path><path d="M992.56 81.99L992.56 81.99" stroke="rgba(141, 147, 144, 1)" stroke-width="1.5"></path><path d="M992.56 81.99L1107.22 42.6" stroke="rgba(141, 147, 144, 1)" stroke-width="1.5"></path><path d="M992.56 81.99L954.65 249.96" stroke="rgba(141, 147, 144, 1)" stroke-width="1.5"></path><path d="M954.65 249.96L954.65 249.96" stroke="rgba(141, 147, 144, 1)" stroke-width="1.5"></path><path d="M954.65 249.96L988.91 411.82" stroke="rgba(141, 147, 144, 1)" stroke-width="1.5"></path><path d="M954.65 249.96L796.84 384.91" stroke="rgba(141, 147, 144, 1)" stroke-width="1.5"></path><path d="M988.91 411.82L988.91 411.82" stroke="rgba(141, 147, 144, 1)" stroke-width="1.5"></path><path d="M988.91 411.82L961.03 544.94" stroke="rgba(141, 147, 144, 1)" stroke-width="1.5"></path><path d="M988.91 411.82L1090.48 530.95" stroke="rgba(141, 147, 144, 1)" stroke-width="1.5"></path><path d="M988.91 411.82L1153.31 381.12" stroke="rgba(141, 147, 144, 1)" stroke-width="1.5"></path><path d="M961.03 544.94L961.03 544.94" stroke="rgba(141, 147, 144, 1)" stroke-width="1.5"></path><path d="M961.03 544.94L1090.48 530.95" stroke="rgba(141, 147, 144, 1)" stroke-width="1.5"></path><path d="M944.57 700.54L944.57 700.54" stroke="rgba(141, 147, 144, 1)" stroke-width="1.5"></path><path d="M944.57 700.54L961.03 544.94" stroke="rgba(141, 147, 144, 1)" stroke-width="1.5"></path><path d="M944.57 700.54L1118.06 686.06" stroke="rgba(141, 147, 144, 1)" stroke-width="1.5"></path><path d="M944.57 700.54L1090.48 530.95" stroke="rgba(141, 147, 144, 1)" stroke-width="1.5"></path><path d="M944.57 700.54L835.79 503.79" stroke="rgba(141, 147, 144, 1)" stroke-width="1.5"></path><path d="M1123.8 -106.42L1123.8 -106.42" stroke="rgba(141, 147, 144, 1)" stroke-width="1.5"></path><path d="M1123.8 -106.42L1107.22 42.6" stroke="rgba(141, 147, 144, 1)" stroke-width="1.5"></path><path d="M1123.8 -106.42L992.56 81.99" stroke="rgba(141, 147, 144, 1)" stroke-width="1.5"></path><path d="M1123.8 -106.42L1262.2 102.09" stroke="rgba(141, 147, 144, 1)" stroke-width="1.5"></path><path d="M1123.8 -106.42L1413.01 -47.01" stroke="rgba(141, 147, 144, 1)" stroke-width="1.5"></path><path d="M1107.22 42.6L1107.22 42.6" stroke="rgba(141, 147, 144, 1)" stroke-width="1.5"></path><path d="M1161.94 193.77L1161.94 193.77" stroke="rgba(141, 147, 144, 1)" stroke-width="1.5"></path><path d="M1161.94 193.77L1262.2 102.09" stroke="rgba(141, 147, 144, 1)" stroke-width="1.5"></path><path d="M1161.94 193.77L1107.22 42.6" stroke="rgba(141, 147, 144, 1)" stroke-width="1.5"></path><path d="M1161.94 193.77L1153.31 381.12" stroke="rgba(141, 147, 144, 1)" stroke-width="1.5"></path><path d="M1161.94 193.77L992.56 81.99" stroke="rgba(141, 147, 144, 1)" stroke-width="1.5"></path><path d="M1161.94 193.77L954.65 249.96" stroke="rgba(141, 147, 144, 1)" stroke-width="1.5"></path><path d="M1153.31 381.12L1153.31 381.12" stroke="rgba(141, 147, 144, 1)" stroke-width="1.5"></path><path d="M1153.31 381.12L1090.48 530.95" stroke="rgba(141, 147, 144, 1)" stroke-width="1.5"></path><path d="M1153.31 381.12L1301.92 520.4" stroke="rgba(141, 147, 144, 1)" stroke-width="1.5"></path><path d="M1153.31 381.12L954.65 249.96" stroke="rgba(141, 147, 144, 1)" stroke-width="1.5"></path><path d="M1090.48 530.95L1090.48 530.95" stroke="rgba(141, 147, 144, 1)" stroke-width="1.5"></path><path d="M1090.48 530.95L1118.06 686.06" stroke="rgba(141, 147, 144, 1)" stroke-width="1.5"></path><path d="M1118.06 686.06L1118.06 686.06" stroke="rgba(141, 147, 144, 1)" stroke-width="1.5"></path><path d="M1118.06 686.06L1271.46 702.69" stroke="rgba(141, 147, 144, 1)" stroke-width="1.5"></path><path d="M1118.06 686.06L961.03 544.94" stroke="rgba(141, 147, 144, 1)" stroke-width="1.5"></path><path d="M1118.06 686.06L1301.92 520.4" stroke="rgba(141, 147, 144, 1)" stroke-width="1.5"></path><path d="M1262.2 102.09L1262.2 102.09" stroke="rgba(141, 147, 144, 1)" stroke-width="1.5"></path><path d="M1262.2 102.09L1107.22 42.6" stroke="rgba(141, 147, 144, 1)" stroke-width="1.5"></path><path d="M1262.2 102.09L1413.01 -47.01" stroke="rgba(141, 147, 144, 1)" stroke-width="1.5"></path><path d="M1262.2 102.09L1440.88 242.87" stroke="rgba(141, 147, 144, 1)" stroke-width="1.5"></path><path d="M1262.2 102.09L992.56 81.99" stroke="rgba(141, 147, 144, 1)" stroke-width="1.5"></path><path d="M1301.92 520.4L1301.92 520.4" stroke="rgba(141, 147, 144, 1)" stroke-width="1.5"></path><path d="M1301.92 520.4L1452.28 546.95" stroke="rgba(141, 147, 144, 1)" stroke-width="1.5"></path><path d="M1301.92 520.4L1396.6 649.17" stroke="rgba(141, 147, 144, 1)" stroke-width="1.5"></path><path d="M1271.46 702.69L1271.46 702.69" stroke="rgba(141, 147, 144, 1)" stroke-width="1.5"></path><path d="M1271.46 702.69L1396.6 649.17" stroke="rgba(141, 147, 144, 1)" stroke-width="1.5"></path><path d="M1413.01 -47.01L1413.01 -47.01" stroke="rgba(141, 147, 144, 1)" stroke-width="1.5"></path><path d="M1413.01 -47.01L1574.87 -71.4" stroke="rgba(141, 147, 144, 1)" stroke-width="1.5"></path><path d="M1413.01 -47.01L1593.1 95.24" stroke="rgba(141, 147, 144, 1)" stroke-width="1.5"></path><path d="M1413.01 -47.01L1562.3 201.9" stroke="rgba(141, 147, 144, 1)" stroke-width="1.5"></path><path d="M1413.01 -47.01L1440.88 242.87" stroke="rgba(141, 147, 144, 1)" stroke-width="1.5"></path><path d="M1440.88 242.87L1440.88 242.87" stroke="rgba(141, 147, 144, 1)" stroke-width="1.5"></path><path d="M1440.88 242.87L1426.18 349.03" stroke="rgba(141, 147, 144, 1)" stroke-width="1.5"></path><path d="M1440.88 242.87L1562.3 201.9" stroke="rgba(141, 147, 144, 1)" stroke-width="1.5"></path><path d="M1440.88 242.87L1593.1 95.24" stroke="rgba(141, 147, 144, 1)" stroke-width="1.5"></path><path d="M1440.88 242.87L1593.24 402.11" stroke="rgba(141, 147, 144, 1)" stroke-width="1.5"></path><path d="M1440.88 242.87L1161.94 193.77" stroke="rgba(141, 147, 144, 1)" stroke-width="1.5"></path><path d="M1426.18 349.03L1426.18 349.03" stroke="rgba(141, 147, 144, 1)" stroke-width="1.5"></path><path d="M1426.18 349.03L1593.24 402.11" stroke="rgba(141, 147, 144, 1)" stroke-width="1.5"></path><path d="M1426.18 349.03L1452.28 546.95" stroke="rgba(141, 147, 144, 1)" stroke-width="1.5"></path><path d="M1426.18 349.03L1562.3 201.9" stroke="rgba(141, 147, 144, 1)" stroke-width="1.5"></path><path d="M1426.18 349.03L1301.92 520.4" stroke="rgba(141, 147, 144, 1)" stroke-width="1.5"></path><path d="M1426.18 349.03L1605.74 504.04" stroke="rgba(141, 147, 144, 1)" stroke-width="1.5"></path><path d="M1452.28 546.95L1452.28 546.95" stroke="rgba(141, 147, 144, 1)" stroke-width="1.5"></path><path d="M1452.28 546.95L1396.6 649.17" stroke="rgba(141, 147, 144, 1)" stroke-width="1.5"></path><path d="M1396.6 649.17L1396.6 649.17" stroke="rgba(141, 147, 144, 1)" stroke-width="1.5"></path><path d="M1574.87 -71.4L1574.87 -71.4" stroke="rgba(141, 147, 144, 1)" stroke-width="1.5"></path><path d="M1574.87 -71.4L1593.1 95.24" stroke="rgba(141, 147, 144, 1)" stroke-width="1.5"></path><path d="M1574.87 -71.4L1562.3 201.9" stroke="rgba(141, 147, 144, 1)" stroke-width="1.5"></path><path d="M1574.87 -71.4L1440.88 242.87" stroke="rgba(141, 147, 144, 1)" stroke-width="1.5"></path><path d="M1593.1 95.24L1593.1 95.24" stroke="rgba(141, 147, 144, 1)" stroke-width="1.5"></path><path d="M1593.1 95.24L1562.3 201.9" stroke="rgba(141, 147, 144, 1)" stroke-width="1.5"></path><path d="M1562.3 201.9L1562.3 201.9" stroke="rgba(141, 147, 144, 1)" stroke-width="1.5"></path><path d="M1562.3 201.9L1593.24 402.11" stroke="rgba(141, 147, 144, 1)" stroke-width="1.5"></path><path d="M1593.24 402.11L1593.24 402.11" stroke="rgba(141, 147, 144, 1)" stroke-width="1.5"></path><path d="M1593.24 402.11L1605.74 504.04" stroke="rgba(141, 147, 144, 1)" stroke-width="1.5"></path><path d="M1593.24 402.11L1452.28 546.95" stroke="rgba(141, 147, 144, 1)" stroke-width="1.5"></path><path d="M1593.24 402.11L1579.59 650.33" stroke="rgba(141, 147, 144, 1)" stroke-width="1.5"></path><path d="M1605.74 504.04L1605.74 504.04" stroke="rgba(141, 147, 144, 1)" stroke-width="1.5"></path><path d="M1605.74 504.04L1579.59 650.33" stroke="rgba(141, 147, 144, 1)" stroke-width="1.5"></path><path d="M1579.59 650.33L1579.59 650.33" stroke="rgba(141, 147, 144, 1)" stroke-width="1.5"></path><path d="M1579.59 650.33L1452.28 546.95" stroke="rgba(141, 147, 144, 1)" stroke-width="1.5"></path><path d="M1579.59 650.33L1396.6 649.17" stroke="rgba(141, 147, 144, 1)" stroke-width="1.5"></path><circle r="5" cx="-42.18" cy="399.78" fill="rgba(141, 147, 144, 1)"></circle><circle r="5" cx="-91.67" cy="512.3" fill="rgba(141, 147, 144, 1)"></circle><circle r="5" cx="-51.2" cy="696.26" fill="rgba(141, 147, 144, 1)"></circle><circle r="5" cx="41.82" cy="406.32" fill="rgba(141, 147, 144, 1)"></circle><circle r="5" cx="85.64" cy="520.01" fill="rgba(141, 147, 144, 1)"></circle><circle r="5" cx="97.87" cy="706.3" fill="rgba(141, 147, 144, 1)"></circle><circle r="5" cx="190.77" cy="347.31" fill="rgba(141, 147, 144, 1)"></circle><circle r="5" cx="199.15" cy="541.7" fill="rgba(141, 147, 144, 1)"></circle><circle r="5" cx="190.79" cy="687.45" fill="rgba(141, 147, 144, 1)"></circle><circle r="5" cx="405.12" cy="411.85" fill="rgba(141, 147, 144, 1)"></circle><circle r="5" cx="387.59" cy="511.02" fill="rgba(141, 147, 144, 1)"></circle><circle r="5" cx="545.66" cy="352.51" fill="rgba(141, 147, 144, 1)"></circle><circle r="5" cx="489.55" cy="530.87" fill="rgba(141, 147, 144, 1)"></circle><circle r="5" cx="540.38" cy="682.51" fill="rgba(141, 147, 144, 1)"></circle><circle r="5" cx="689.52" cy="232.96" fill="rgba(141, 147, 144, 1)"></circle><circle r="5" cx="685.86" cy="400.87" fill="rgba(141, 147, 144, 1)"></circle><circle r="5" cx="679.77" cy="538.9" fill="rgba(141, 147, 144, 1)"></circle><circle r="5" cx="683.27" cy="652.57" fill="rgba(141, 147, 144, 1)"></circle><circle r="5" cx="831.81" cy="202.98" fill="rgba(141, 147, 144, 1)"></circle><circle r="5" cx="796.84" cy="384.91" fill="rgba(141, 147, 144, 1)"></circle><circle r="5" cx="835.79" cy="503.79" fill="rgba(141, 147, 144, 1)"></circle><circle r="5" cx="809.05" cy="660.81" fill="rgba(141, 147, 144, 1)"></circle><circle r="5" cx="1004.83" cy="-50.89" fill="rgba(141, 147, 144, 1)"></circle><circle r="5" cx="992.56" cy="81.99" fill="rgba(141, 147, 144, 1)"></circle><circle r="5" cx="954.65" cy="249.96" fill="rgba(141, 147, 144, 1)"></circle><circle r="5" cx="988.91" cy="411.82" fill="rgba(141, 147, 144, 1)"></circle><circle r="5" cx="961.03" cy="544.94" fill="rgba(141, 147, 144, 1)"></circle><circle r="5" cx="944.57" cy="700.54" fill="rgba(141, 147, 144, 1)"></circle><circle r="5" cx="1123.8" cy="-106.42" fill="rgba(141, 147, 144, 1)"></circle><circle r="5" cx="1107.22" cy="42.6" fill="rgba(141, 147, 144, 1)"></circle><circle r="5" cx="1161.94" cy="193.77" fill="rgba(141, 147, 144, 1)"></circle><circle r="5" cx="1153.31" cy="381.12" fill="rgba(141, 147, 144, 1)"></circle><circle r="5" cx="1090.48" cy="530.95" fill="rgba(141, 147, 144, 1)"></circle><circle r="5" cx="1118.06" cy="686.06" fill="rgba(141, 147, 144, 1)"></circle><circle r="5" cx="1262.2" cy="102.09" fill="rgba(141, 147, 144, 1)"></circle><circle r="5" cx="1301.92" cy="520.4" fill="rgba(141, 147, 144, 1)"></circle><circle r="5" cx="1271.46" cy="702.69" fill="rgba(141, 147, 144, 1)"></circle><circle r="5" cx="1413.01" cy="-47.01" fill="rgba(141, 147, 144, 1)"></circle><circle r="5" cx="1440.88" cy="242.87" fill="rgba(141, 147, 144, 1)"></circle><circle r="5" cx="1426.18" cy="349.03" fill="rgba(141, 147, 144, 1)"></circle><circle r="5" cx="1452.28" cy="546.95" fill="rgba(141, 147, 144, 1)"></circle><circle r="5" cx="1396.6" cy="649.17" fill="rgba(141, 147, 144, 1)"></circle><circle r="5" cx="1574.87" cy="-71.4" fill="rgba(141, 147, 144, 1)"></circle><circle r="5" cx="1593.1" cy="95.24" fill="rgba(141, 147, 144, 1)"></circle><circle r="5" cx="1562.3" cy="201.9" fill="rgba(141, 147, 144, 1)"></circle><circle r="5" cx="1593.24" cy="402.11" fill="rgba(141, 147, 144, 1)"></circle><circle r="5" cx="1605.74" cy="504.04" fill="rgba(141, 147, 144, 1)"></circle><circle r="5" cx="1579.59" cy="650.33" fill="rgba(141, 147, 144, 1)"></circle><path d="M196.52 657.78L196.52 657.78" stroke="hsl(150, 2.4%, 41.8%)" stroke-width="1.5"></path><path d="M196.52 657.78L94.94 641.78" stroke="hsl(150, 2.4%, 41.8%)" stroke-width="1.5"></path><path d="M196.52 657.78L201.06 539.17" stroke="hsl(150, 2.4%, 41.8%)" stroke-width="1.5"></path><path d="M680.48 381.01L680.48 381.01" stroke="hsl(150, 2.4%, 41.8%)" stroke-width="1.5"></path><path d="M680.48 381.01L824.35 406.67" stroke="hsl(150, 2.4%, 41.8%)" stroke-width="1.5"></path><path d="M680.48 381.01L650.76 531.7" stroke="hsl(150, 2.4%, 41.8%)" stroke-width="1.5"></path><path d="M680.48 381.01L831.65 538.82" stroke="hsl(150, 2.4%, 41.8%)" stroke-width="1.5"></path><path d="M680.48 381.01L511.16 520.18" stroke="hsl(150, 2.4%, 41.8%)" stroke-width="1.5"></path><path d="M680.48 381.01L688.2 680.32" stroke="hsl(150, 2.4%, 41.8%)" stroke-width="1.5"></path><path d="M680.48 381.01L789.15 660.43" stroke="hsl(150, 2.4%, 41.8%)" stroke-width="1.5"></path><path d="M688.2 680.32L688.2 680.32" stroke="hsl(150, 2.4%, 41.8%)" stroke-width="1.5"></path><path d="M688.2 680.32L789.15 660.43" stroke="hsl(150, 2.4%, 41.8%)" stroke-width="1.5"></path><path d="M688.2 680.32L650.76 531.7" stroke="hsl(150, 2.4%, 41.8%)" stroke-width="1.5"></path><path d="M688.2 680.32L507.8 674.81" stroke="hsl(150, 2.4%, 41.8%)" stroke-width="1.5"></path><path d="M688.2 680.32L831.65 538.82" stroke="hsl(150, 2.4%, 41.8%)" stroke-width="1.5"></path><path d="M688.2 680.32L511.16 520.18" stroke="hsl(150, 2.4%, 41.8%)" stroke-width="1.5"></path><path d="M999.72 506.04L999.72 506.04" stroke="hsl(150, 2.4%, 41.8%)" stroke-width="1.5"></path><path d="M999.72 506.04L1123.38 535.46" stroke="hsl(150, 2.4%, 41.8%)" stroke-width="1.5"></path><path d="M999.72 506.04L991.49 648.87" stroke="hsl(150, 2.4%, 41.8%)" stroke-width="1.5"></path><path d="M999.72 506.04L831.65 538.82" stroke="hsl(150, 2.4%, 41.8%)" stroke-width="1.5"></path><path d="M999.72 506.04L1093.49 657.16" stroke="hsl(150, 2.4%, 41.8%)" stroke-width="1.5"></path><path d="M999.72 506.04L824.35 406.67" stroke="hsl(150, 2.4%, 41.8%)" stroke-width="1.5"></path><path d="M999.72 506.04L1152.9 362.82" stroke="hsl(150, 2.4%, 41.8%)" stroke-width="1.5"></path><path d="M1093.49 657.16L1093.49 657.16" stroke="hsl(150, 2.4%, 41.8%)" stroke-width="1.5"></path><path d="M1093.49 657.16L991.49 648.87" stroke="hsl(150, 2.4%, 41.8%)" stroke-width="1.5"></path><path d="M1093.49 657.16L1123.38 535.46" stroke="hsl(150, 2.4%, 41.8%)" stroke-width="1.5"></path><path d="M1093.49 657.16L1282.18 680.46" stroke="hsl(150, 2.4%, 41.8%)" stroke-width="1.5"></path><path d="M1280.88 45.75L1280.88 45.75" stroke="hsl(150, 2.4%, 41.8%)" stroke-width="1.5"></path><path d="M1280.88 45.75L1302.97 -90.79" stroke="hsl(150, 2.4%, 41.8%)" stroke-width="1.5"></path><path d="M1280.88 45.75L1421.23 109.09" stroke="hsl(150, 2.4%, 41.8%)" stroke-width="1.5"></path><path d="M1280.88 45.75L1153.31 -41.34" stroke="hsl(150, 2.4%, 41.8%)" stroke-width="1.5"></path><path d="M1280.88 45.75L1430.61 -66.17" stroke="hsl(150, 2.4%, 41.8%)" stroke-width="1.5"></path><path d="M1280.88 45.75L1406.99 188.58" stroke="hsl(150, 2.4%, 41.8%)" stroke-width="1.5"></path><path d="M1250.74 402.29L1250.74 402.29" stroke="hsl(150, 2.4%, 41.8%)" stroke-width="1.5"></path><path d="M1250.74 402.29L1152.9 362.82" stroke="hsl(150, 2.4%, 41.8%)" stroke-width="1.5"></path><path d="M1250.74 402.29L1246.71 516.62" stroke="hsl(150, 2.4%, 41.8%)" stroke-width="1.5"></path><path d="M1250.74 402.29L1237.85 249.1" stroke="hsl(150, 2.4%, 41.8%)" stroke-width="1.5"></path><path d="M1250.74 402.29L1412.78 356.26" stroke="hsl(150, 2.4%, 41.8%)" stroke-width="1.5"></path><path d="M1250.74 402.29L1123.38 535.46" stroke="hsl(150, 2.4%, 41.8%)" stroke-width="1.5"></path><path d="M1430.61 -66.17L1430.61 -66.17" stroke="hsl(150, 2.4%, 41.8%)" stroke-width="1.5"></path><path d="M1430.61 -66.17L1302.97 -90.79" stroke="hsl(150, 2.4%, 41.8%)" stroke-width="1.5"></path><path d="M1406.99 188.58L1406.99 188.58" stroke="hsl(150, 2.4%, 41.8%)" stroke-width="1.5"></path><path d="M1406.99 188.58L1421.23 109.09" stroke="hsl(150, 2.4%, 41.8%)" stroke-width="1.5"></path><path d="M1406.99 188.58L1553.41 189.3" stroke="hsl(150, 2.4%, 41.8%)" stroke-width="1.5"></path><path d="M1406.99 188.58L1412.78 356.26" stroke="hsl(150, 2.4%, 41.8%)" stroke-width="1.5"></path><path d="M1412.78 356.26L1412.78 356.26" stroke="hsl(150, 2.4%, 41.8%)" stroke-width="1.5"></path><path d="M1412.78 356.26L1540.01 372.48" stroke="hsl(150, 2.4%, 41.8%)" stroke-width="1.5"></path><path d="M1412.78 356.26L1449.72 531.38" stroke="hsl(150, 2.4%, 41.8%)" stroke-width="1.5"></path><path d="M1412.78 356.26L1237.85 249.1" stroke="hsl(150, 2.4%, 41.8%)" stroke-width="1.5"></path><path d="M1412.78 356.26L1553.41 189.3" stroke="hsl(150, 2.4%, 41.8%)" stroke-width="1.5"></path><path d="M1610.19 -84.2L1610.19 -84.2" stroke="hsl(150, 2.4%, 41.8%)" stroke-width="1.5"></path><path d="M1610.19 -84.2L1560.87 87.7" stroke="hsl(150, 2.4%, 41.8%)" stroke-width="1.5"></path><path d="M1610.19 -84.2L1430.61 -66.17" stroke="hsl(150, 2.4%, 41.8%)" stroke-width="1.5"></path><path d="M1610.19 -84.2L1421.23 109.09" stroke="hsl(150, 2.4%, 41.8%)" stroke-width="1.5"></path><path d="M1610.19 -84.2L1553.41 189.3" stroke="hsl(150, 2.4%, 41.8%)" stroke-width="1.5"></path><path d="M1610.19 -84.2L1302.97 -90.79" stroke="hsl(150, 2.4%, 41.8%)" stroke-width="1.5"></path><path d="M-88.12 512.73L-88.12 512.73" stroke="hsl(150, 2.4%, 41.8%)" stroke-width="1.5"></path><path d="M-88.12 512.73L-90.3 650.27" stroke="hsl(150, 2.4%, 41.8%)" stroke-width="1.5"></path><path d="M-88.12 512.73L93.57 492.34" stroke="hsl(150, 2.4%, 41.8%)" stroke-width="1.5"></path><path d="M-88.12 512.73L94.94 641.78" stroke="hsl(150, 2.4%, 41.8%)" stroke-width="1.5"></path><path d="M-90.3 650.27L-90.3 650.27" stroke="hsl(150, 2.4%, 41.8%)" stroke-width="1.5"></path><path d="M-90.3 650.27L94.94 641.78" stroke="hsl(150, 2.4%, 41.8%)" stroke-width="1.5"></path><path d="M-90.3 650.27L93.57 492.34" stroke="hsl(150, 2.4%, 41.8%)" stroke-width="1.5"></path><path d="M-90.3 650.27L196.52 657.78" stroke="hsl(150, 2.4%, 41.8%)" stroke-width="1.5"></path><path d="M-90.3 650.27L201.06 539.17" stroke="hsl(150, 2.4%, 41.8%)" stroke-width="1.5"></path><path d="M93.57 492.34L93.57 492.34" stroke="hsl(150, 2.4%, 41.8%)" stroke-width="1.5"></path><path d="M93.57 492.34L201.06 539.17" stroke="hsl(150, 2.4%, 41.8%)" stroke-width="1.5"></path><path d="M93.57 492.34L94.94 641.78" stroke="hsl(150, 2.4%, 41.8%)" stroke-width="1.5"></path><path d="M94.94 641.78L94.94 641.78" stroke="hsl(150, 2.4%, 41.8%)" stroke-width="1.5"></path><path d="M94.94 641.78L201.06 539.17" stroke="hsl(150, 2.4%, 41.8%)" stroke-width="1.5"></path><path d="M201.06 539.17L201.06 539.17" stroke="hsl(150, 2.4%, 41.8%)" stroke-width="1.5"></path><path d="M201.06 539.17L379.86 545.04" stroke="hsl(150, 2.4%, 41.8%)" stroke-width="1.5"></path><path d="M379.86 545.04L379.86 545.04" stroke="hsl(150, 2.4%, 41.8%)" stroke-width="1.5"></path><path d="M379.86 545.04L511.16 520.18" stroke="hsl(150, 2.4%, 41.8%)" stroke-width="1.5"></path><path d="M379.86 545.04L385.63 703.7" stroke="hsl(150, 2.4%, 41.8%)" stroke-width="1.5"></path><path d="M385.63 703.7L385.63 703.7" stroke="hsl(150, 2.4%, 41.8%)" stroke-width="1.5"></path><path d="M385.63 703.7L507.8 674.81" stroke="hsl(150, 2.4%, 41.8%)" stroke-width="1.5"></path><path d="M511.16 520.18L511.16 520.18" stroke="hsl(150, 2.4%, 41.8%)" stroke-width="1.5"></path><path d="M507.8 674.81L507.8 674.81" stroke="hsl(150, 2.4%, 41.8%)" stroke-width="1.5"></path><path d="M507.8 674.81L511.16 520.18" stroke="hsl(150, 2.4%, 41.8%)" stroke-width="1.5"></path><path d="M507.8 674.81L379.86 545.04" stroke="hsl(150, 2.4%, 41.8%)" stroke-width="1.5"></path><path d="M507.8 674.81L650.76 531.7" stroke="hsl(150, 2.4%, 41.8%)" stroke-width="1.5"></path><path d="M650.76 531.7L650.76 531.7" stroke="hsl(150, 2.4%, 41.8%)" stroke-width="1.5"></path><path d="M650.76 531.7L511.16 520.18" stroke="hsl(150, 2.4%, 41.8%)" stroke-width="1.5"></path><path d="M824.35 406.67L824.35 406.67" stroke="hsl(150, 2.4%, 41.8%)" stroke-width="1.5"></path><path d="M824.35 406.67L831.65 538.82" stroke="hsl(150, 2.4%, 41.8%)" stroke-width="1.5"></path><path d="M824.35 406.67L650.76 531.7" stroke="hsl(150, 2.4%, 41.8%)" stroke-width="1.5"></path><path d="M831.65 538.82L831.65 538.82" stroke="hsl(150, 2.4%, 41.8%)" stroke-width="1.5"></path><path d="M831.65 538.82L789.15 660.43" stroke="hsl(150, 2.4%, 41.8%)" stroke-width="1.5"></path><path d="M789.15 660.43L789.15 660.43" stroke="hsl(150, 2.4%, 41.8%)" stroke-width="1.5"></path><path d="M991.49 648.87L991.49 648.87" stroke="hsl(150, 2.4%, 41.8%)" stroke-width="1.5"></path><path d="M991.49 648.87L1123.38 535.46" stroke="hsl(150, 2.4%, 41.8%)" stroke-width="1.5"></path><path d="M991.49 648.87L831.65 538.82" stroke="hsl(150, 2.4%, 41.8%)" stroke-width="1.5"></path><path d="M1153.31 -41.34L1153.31 -41.34" stroke="hsl(150, 2.4%, 41.8%)" stroke-width="1.5"></path><path d="M1153.31 -41.34L1302.97 -90.79" stroke="hsl(150, 2.4%, 41.8%)" stroke-width="1.5"></path><path d="M1153.31 -41.34L1430.61 -66.17" stroke="hsl(150, 2.4%, 41.8%)" stroke-width="1.5"></path><path d="M1091.33 235.9L1091.33 235.9" stroke="hsl(150, 2.4%, 41.8%)" stroke-width="1.5"></path><path d="M1091.33 235.9L1152.9 362.82" stroke="hsl(150, 2.4%, 41.8%)" stroke-width="1.5"></path><path d="M1091.33 235.9L1237.85 249.1" stroke="hsl(150, 2.4%, 41.8%)" stroke-width="1.5"></path><path d="M1152.9 362.82L1152.9 362.82" stroke="hsl(150, 2.4%, 41.8%)" stroke-width="1.5"></path><path d="M1152.9 362.82L1237.85 249.1" stroke="hsl(150, 2.4%, 41.8%)" stroke-width="1.5"></path><path d="M1152.9 362.82L1123.38 535.46" stroke="hsl(150, 2.4%, 41.8%)" stroke-width="1.5"></path><path d="M1152.9 362.82L1246.71 516.62" stroke="hsl(150, 2.4%, 41.8%)" stroke-width="1.5"></path><path d="M1123.38 535.46L1123.38 535.46" stroke="hsl(150, 2.4%, 41.8%)" stroke-width="1.5"></path><path d="M1123.38 535.46L1246.71 516.62" stroke="hsl(150, 2.4%, 41.8%)" stroke-width="1.5"></path><path d="M1302.97 -90.79L1302.97 -90.79" stroke="hsl(150, 2.4%, 41.8%)" stroke-width="1.5"></path><path d="M1237.85 249.1L1237.85 249.1" stroke="hsl(150, 2.4%, 41.8%)" stroke-width="1.5"></path><path d="M1246.71 516.62L1246.71 516.62" stroke="hsl(150, 2.4%, 41.8%)" stroke-width="1.5"></path><path d="M1282.18 680.46L1282.18 680.46" stroke="hsl(150, 2.4%, 41.8%)" stroke-width="1.5"></path><path d="M1282.18 680.46L1400.34 638.2" stroke="hsl(150, 2.4%, 41.8%)" stroke-width="1.5"></path><path d="M1282.18 680.46L1246.71 516.62" stroke="hsl(150, 2.4%, 41.8%)" stroke-width="1.5"></path><path d="M1282.18 680.46L1123.38 535.46" stroke="hsl(150, 2.4%, 41.8%)" stroke-width="1.5"></path><path d="M1421.23 109.09L1421.23 109.09" stroke="hsl(150, 2.4%, 41.8%)" stroke-width="1.5"></path><path d="M1421.23 109.09L1560.87 87.7" stroke="hsl(150, 2.4%, 41.8%)" stroke-width="1.5"></path><path d="M1449.72 531.38L1449.72 531.38" stroke="hsl(150, 2.4%, 41.8%)" stroke-width="1.5"></path><path d="M1449.72 531.38L1400.34 638.2" stroke="hsl(150, 2.4%, 41.8%)" stroke-width="1.5"></path><path d="M1449.72 531.38L1544.73 645.42" stroke="hsl(150, 2.4%, 41.8%)" stroke-width="1.5"></path><path d="M1400.34 638.2L1400.34 638.2" stroke="hsl(150, 2.4%, 41.8%)" stroke-width="1.5"></path><path d="M1400.34 638.2L1544.73 645.42" stroke="hsl(150, 2.4%, 41.8%)" stroke-width="1.5"></path><path d="M1400.34 638.2L1246.71 516.62" stroke="hsl(150, 2.4%, 41.8%)" stroke-width="1.5"></path><path d="M1400.34 638.2L1250.74 402.29" stroke="hsl(150, 2.4%, 41.8%)" stroke-width="1.5"></path><path d="M1560.87 87.7L1560.87 87.7" stroke="hsl(150, 2.4%, 41.8%)" stroke-width="1.5"></path><path d="M1560.87 87.7L1553.41 189.3" stroke="hsl(150, 2.4%, 41.8%)" stroke-width="1.5"></path><path d="M1560.87 87.7L1406.99 188.58" stroke="hsl(150, 2.4%, 41.8%)" stroke-width="1.5"></path><path d="M1560.87 87.7L1430.61 -66.17" stroke="hsl(150, 2.4%, 41.8%)" stroke-width="1.5"></path><path d="M1553.41 189.3L1553.41 189.3" stroke="hsl(150, 2.4%, 41.8%)" stroke-width="1.5"></path><path d="M1553.41 189.3L1421.23 109.09" stroke="hsl(150, 2.4%, 41.8%)" stroke-width="1.5"></path><path d="M1540.01 372.48L1540.01 372.48" stroke="hsl(150, 2.4%, 41.8%)" stroke-width="1.5"></path><path d="M1540.01 372.48L1449.72 531.38" stroke="hsl(150, 2.4%, 41.8%)" stroke-width="1.5"></path><path d="M1540.01 372.48L1553.41 189.3" stroke="hsl(150, 2.4%, 41.8%)" stroke-width="1.5"></path><path d="M1544.73 645.42L1544.73 645.42" stroke="hsl(150, 2.4%, 41.8%)" stroke-width="1.5"></path><path d="M1544.73 645.42L1282.18 680.46" stroke="hsl(150, 2.4%, 41.8%)" stroke-width="1.5"></path><path d="M1544.73 645.42L1540.01 372.48" stroke="hsl(150, 2.4%, 41.8%)" stroke-width="1.5"></path><path d="M1544.73 645.42L1412.78 356.26" stroke="hsl(150, 2.4%, 41.8%)" stroke-width="1.5"></path><circle r="25" cx="196.52" cy="657.78" fill="url(&quot;#SvgjsRadialGradient1011&quot;)"></circle><circle r="25" cx="680.48" cy="381.01" fill="url(&quot;#SvgjsRadialGradient1011&quot;)"></circle><circle r="25" cx="688.2" cy="680.32" fill="url(&quot;#SvgjsRadialGradient1011&quot;)"></circle><circle r="25" cx="999.72" cy="506.04" fill="url(&quot;#SvgjsRadialGradient1011&quot;)"></circle><circle r="25" cx="1093.49" cy="657.16" fill="url(&quot;#SvgjsRadialGradient1011&quot;)"></circle><circle r="25" cx="1280.88" cy="45.75" fill="url(&quot;#SvgjsRadialGradient1011&quot;)"></circle><circle r="25" cx="1250.74" cy="402.29" fill="url(&quot;#SvgjsRadialGradient1011&quot;)"></circle><circle r="25" cx="1430.61" cy="-66.17" fill="url(&quot;#SvgjsRadialGradient1011&quot;)"></circle><circle r="25" cx="1406.99" cy="188.58" fill="url(&quot;#SvgjsRadialGradient1011&quot;)"></circle><circle r="25" cx="1412.78" cy="356.26" fill="url(&quot;#SvgjsRadialGradient1011&quot;)"></circle><circle r="25" cx="1610.19" cy="-84.2" fill="url(&quot;#SvgjsRadialGradient1011&quot;)"></circle><circle r="5" cx="-88.12" cy="512.73" fill="#a8aaa9"></circle><circle r="5" cx="-90.3" cy="650.27" fill="#a8aaa9"></circle><circle r="5" cx="93.57" cy="492.34" fill="#a8aaa9"></circle><circle r="5" cx="94.94" cy="641.78" fill="#a8aaa9"></circle><circle r="5" cx="201.06" cy="539.17" fill="#a8aaa9"></circle><circle r="5" cx="379.86" cy="545.04" fill="#a8aaa9"></circle><circle r="5" cx="385.63" cy="703.7" fill="#a8aaa9"></circle><circle r="5" cx="511.16" cy="520.18" fill="#a8aaa9"></circle><circle r="5" cx="507.8" cy="674.81" fill="#a8aaa9"></circle><circle r="5" cx="650.76" cy="531.7" fill="#a8aaa9"></circle><circle r="5" cx="824.35" cy="406.67" fill="#a8aaa9"></circle><circle r="5" cx="831.65" cy="538.82" fill="#a8aaa9"></circle><circle r="5" cx="789.15" cy="660.43" fill="#a8aaa9"></circle><circle r="5" cx="991.49" cy="648.87" fill="#a8aaa9"></circle><circle r="5" cx="1153.31" cy="-41.34" fill="#a8aaa9"></circle><circle r="5" cx="1091.33" cy="235.9" fill="#a8aaa9"></circle><circle r="5" cx="1152.9" cy="362.82" fill="#a8aaa9"></circle><circle r="5" cx="1123.38" cy="535.46" fill="#a8aaa9"></circle><circle r="5" cx="1302.97" cy="-90.79" fill="#a8aaa9"></circle><circle r="5" cx="1237.85" cy="249.1" fill="#a8aaa9"></circle><circle r="5" cx="1246.71" cy="516.62" fill="#a8aaa9"></circle><circle r="5" cx="1282.18" cy="680.46" fill="#a8aaa9"></circle><circle r="5" cx="1421.23" cy="109.09" fill="#a8aaa9"></circle><circle r="5" cx="1449.72" cy="531.38" fill="#a8aaa9"></circle><circle r="5" cx="1400.34" cy="638.2" fill="#a8aaa9"></circle><circle r="5" cx="1560.87" cy="87.7" fill="#a8aaa9"></circle><circle r="5" cx="1553.41" cy="189.3" fill="#a8aaa9"></circle><circle r="5" cx="1540.01" cy="372.48" fill="#a8aaa9"></circle><circle r="5" cx="1544.73" cy="645.42" fill="#a8aaa9"></circle></g><defs><mask id="SvgjsMask1010"><rect width="1440" height="560" fill="#ffffff"></rect></mask><radialGradient id="SvgjsRadialGradient1011"><stop stop-color="#ffffff" offset="0.1"></stop><stop stop-color="rgba(80, 84, 82, 1)" offset="0.2"></stop><stop stop-color="rgba(80, 84, 82, 0)" offset="1"></stop></radialGradient></defs></svg>