<?xml version="1.0" encoding="UTF-8"?>
<svg id="Capa_2" data-name="Capa 2" xmlns="http://www.w3.org/2000/svg" viewBox="0 0 540.62 225.05">
  <defs>
    <style>
      .cls-1 {
        fill: #001f2d;
      }

      .cls-2 {
        fill: #fe9001;
      }

      .cls-3 {
        fill: #2d2d2b;
      }
    </style>
  </defs>
  <g id="Capa_1-2" data-name="Capa 1">
    <g>
      <g>
        <path class="cls-2" d="m50.86,156.55c-1.33-3.98-2.21-6.41-2.21-19.02v-24.32c0-14.37-4.87-19.68-15.92-19.68h-8.4v63.02H0V1.77h36.7c25.21,0,36.04,11.72,36.04,35.6v12.16c0,15.92-5.08,26.31-15.92,31.4,12.16,5.09,16.14,16.81,16.14,32.95v23.88c0,7.52.22,13.05,2.65,18.79h-24.77ZM24.32,23.88v47.54h9.51c9.06,0,14.59-3.98,14.59-16.36v-15.26c0-11.06-3.76-15.92-12.38-15.92h-11.72Z"/>
        <path class="cls-2" d="m82.48,38.92C82.48,14.15,95.52,0,119.4,0s36.92,14.15,36.92,38.92v80.48c0,24.77-13.04,38.92-36.92,38.92s-36.93-14.15-36.93-38.92V38.92Zm24.32,82.03c0,11.05,4.87,15.26,12.61,15.26s12.6-4.2,12.6-15.26V37.37c0-11.05-4.87-15.26-12.6-15.26s-12.61,4.2-12.61,15.26v83.58Z"/>
        <rect class="cls-2" x="167.61" y="1.77" width="24.32" height="154.78"/>
        <path class="cls-1" d="m281.26,37.37v5.53c0,15.92-4.87,26.09-15.7,31.18,13.05,5.08,18.13,16.81,18.13,33.17v12.6c0,23.88-12.6,36.71-36.92,36.71h-38.25V1.77h36.7c25.21,0,36.04,11.72,36.04,35.6m-48.42-13.49v40.9h9.51c9.07,0,14.59-3.98,14.59-16.36v-8.62c0-11.06-3.76-15.92-12.38-15.92h-11.72Zm0,63.02v47.54h13.93c8.18,0,12.6-3.76,12.6-15.26v-13.49c0-14.37-4.64-18.79-15.7-18.79h-10.83Z"/>
        <path class="cls-1" d="m372.58,156.55h-24.55l-4.2-28.08h-29.85l-4.2,28.08h-22.33L312.21,1.77h35.6l24.77,154.78Zm-55.5-49.09h23.44l-11.72-78.27-11.72,78.27Z"/>
        <path class="cls-1" d="m449.74,98.84v20.56c0,24.77-12.38,38.92-36.26,38.92s-36.27-14.15-36.27-38.92V38.92c0-24.76,12.38-38.92,36.27-38.92s36.26,14.15,36.26,38.92v15.04h-23v-16.58c0-11.06-4.86-15.26-12.6-15.26s-12.61,4.2-12.61,15.26v83.58c0,11.06,4.87,15.04,12.61,15.04s12.6-3.98,12.6-15.04v-22.11h23Z"/>
        <polygon class="cls-1" points="491.97 94.86 484.45 109.01 484.45 156.55 460.13 156.55 460.13 1.77 484.45 1.77 484.45 69.21 516.3 1.77 540.62 1.77 506.79 70.76 540.62 156.55 515.63 156.55 491.97 94.86"/>
      </g>
      <g>
        <path class="cls-3" d="m143.9,195.25c0,6.97-5.04,11.18-13.38,11.18h-7.93v9.72h-4.58v-32.08h12.51c8.34,0,13.38,4.22,13.38,11.18Zm-4.58,0c0-4.58-3.07-7.2-8.94-7.2h-7.79v14.39h7.79c5.87,0,8.94-2.61,8.94-7.2Z"/>
        <path class="cls-3" d="m169.07,201.49v14.67h-4.17v-3.21c-1.47,2.2-4.17,3.48-7.98,3.48-5.5,0-8.98-2.93-8.98-7.15,0-3.9,2.52-7.1,9.76-7.1h6.97v-.87c0-3.71-2.15-5.87-6.51-5.87-2.89,0-5.82,1.01-7.7,2.61l-1.83-3.3c2.52-2.02,6.14-3.12,10.04-3.12,6.65,0,10.4,3.21,10.4,9.85Zm-4.4,7.24v-3.39h-6.78c-4.35,0-5.59,1.7-5.59,3.76,0,2.43,2.02,3.94,5.36,3.94s5.91-1.51,7.01-4.31Z"/>
        <path class="cls-3" d="m190.29,191.63v4.26c-.37-.05-.69-.05-1.01-.05-4.72,0-7.65,2.89-7.65,8.2v12.1h-4.4v-24.29h4.22v4.08c1.56-2.84,4.58-4.31,8.85-4.31Z"/>
        <path class="cls-3" d="m210.36,214.73c-1.33,1.15-3.35,1.7-5.32,1.7-4.9,0-7.7-2.7-7.7-7.61v-13.34h-4.13v-3.62h4.13v-5.32h4.4v5.32h6.97v3.62h-6.97v13.15c0,2.61,1.38,4.08,3.8,4.08,1.28,0,2.52-.41,3.44-1.15l1.37,3.16Z"/>
        <path class="cls-3" d="m225.76,204.01c0-7.24,5.36-12.38,12.65-12.38s12.6,5.13,12.6,12.38-5.32,12.42-12.6,12.42-12.65-5.18-12.65-12.42Zm20.81,0c0-5.18-3.48-8.53-8.16-8.53s-8.2,3.35-8.2,8.53,3.53,8.57,8.2,8.57,8.16-3.39,8.16-8.57Z"/>
        <path class="cls-3" d="m262.06,189.75v2.11h7.06v3.62h-6.97v20.67h-4.4v-20.67h-4.13v-3.62h4.13v-2.15c0-4.72,2.84-7.84,8.02-7.84,1.88,0,3.71.46,4.95,1.42l-1.33,3.35c-.92-.69-2.11-1.15-3.39-1.15-2.61,0-3.94,1.47-3.94,4.26Z"/>
        <path class="cls-3" d="m313.85,184.07v32.08h-4.58v-14.3h-18.43v14.3h-4.58v-32.08h4.58v13.8h18.43v-13.8h4.58Z"/>
        <path class="cls-3" d="m351.07,207.49c0,5.5-4.17,8.66-12.28,8.66h-15.31v-32.08h14.39c7.38,0,11.5,3.12,11.5,8.3,0,3.48-1.79,5.91-4.31,7.15,3.62,1.01,6,3.71,6,7.98Zm-23.01-19.71v10.27h9.4c4.67,0,7.33-1.74,7.33-5.13s-2.66-5.13-7.33-5.13h-9.4Zm18.38,19.34c0-3.71-2.75-5.36-7.84-5.36h-10.54v10.68h10.54c5.09,0,7.84-1.6,7.84-5.32Z"/>
        <path class="cls-3" d="m377.88,216.15l-9.62-13.25-9.49,13.25h-5.27l12.05-16.45-11.32-15.63h5.23l8.98,12.33,8.89-12.33h5l-11.32,15.49,12.15,16.59h-5.27Z"/>
        <path class="cls-3" d="m423.12,199.93h4.4v12.51c-3.21,2.7-7.65,4.08-12.15,4.08-9.85,0-17.1-6.92-17.1-16.41s7.24-16.41,17.19-16.41c5.09,0,9.4,1.7,12.33,4.95l-2.84,2.84c-2.66-2.57-5.68-3.71-9.3-3.71-7.43,0-12.79,5.18-12.79,12.33s5.36,12.33,12.74,12.33c2.7,0,5.22-.6,7.52-2.06v-10.45Z"/>
        <path class="cls-3" d="m448.69,191.63v4.26c-.37-.05-.69-.05-1.01-.05-4.72,0-7.65,2.89-7.65,8.2v12.1h-4.4v-24.29h4.22v4.08c1.56-2.84,4.58-4.31,8.85-4.31Z"/>
        <path class="cls-3" d="m451.67,204.01c0-7.24,5.36-12.38,12.65-12.38s12.6,5.13,12.6,12.38-5.32,12.42-12.6,12.42-12.65-5.18-12.65-12.42Zm20.81,0c0-5.18-3.48-8.53-8.16-8.53s-8.2,3.35-8.2,8.53,3.53,8.57,8.2,8.57,8.16-3.39,8.16-8.57Z"/>
        <path class="cls-3" d="m505.67,191.86v24.29h-4.17v-3.67c-1.79,2.52-4.81,3.94-8.25,3.94-6.28,0-10.45-3.44-10.45-10.59v-13.98h4.4v13.47c0,4.77,2.38,7.15,6.55,7.15,4.58,0,7.52-2.84,7.52-8.07v-12.56h4.4Z"/>
        <path class="cls-3" d="m539.22,204.01c0,7.47-5.18,12.42-12.28,12.42-3.44,0-6.46-1.33-8.48-3.94v12.56h-4.4v-33.18h4.22v3.85c1.97-2.7,5.09-4.08,8.66-4.08,7.1,0,12.28,4.95,12.28,12.38Zm-4.45,0c0-5.13-3.53-8.53-8.2-8.53s-8.16,3.39-8.16,8.53,3.53,8.57,8.16,8.57,8.2-3.39,8.2-8.57Z"/>
      </g>
    </g>
  </g>
</svg>