<?xml version="1.0" encoding="UTF-8"?>
<svg version="1.1" xmlns="http://www.w3.org/2000/svg" width="256" height="256">
<path d="M0 0 C4.52966583 2.47551505 7.16586374 5.37259122 8.8125 10.3125 C8.90475211 11.81024018 8.9425019 13.31192974 8.9375 14.8125 C8.94136719 15.97265625 8.94136719 15.97265625 8.9453125 17.15625 C8.8125 19.3125 8.8125 19.3125 7.8125 22.3125 C9.15475586 24.53672486 10.51466396 26.55259339 12.0625 28.625 C15.07166441 32.7210708 17.65273485 36.67741961 19.8125 41.3125 C20.46605469 40.40757813 20.46605469 40.40757813 21.1328125 39.484375 C28.77243564 29.23206689 28.77243564 29.23206689 34.90625 27.8359375 C39.56170079 27.40546773 42.40440899 28.26792925 46.0625 31.1875 C56.17095104 41.1751329 57.36968405 54.7819813 57.82910156 68.25927734 C57.80307494 71.47815755 57.30620544 74.62637089 56.875 77.8125 C56.40012639 82.49367412 56.40012639 82.49367412 58.3125 86.609375 C60.35857298 88.59345257 60.35857298 88.59345257 62.609375 90.39453125 C70.56323043 97.3188983 74.27012555 109.1905011 75.05078125 119.44140625 C75.25647772 128.9575745 74.01848892 137.30314232 68.8125 145.4375 C67.37922558 149.55816397 68.93346832 151.75512118 70.6875 155.609375 C73.24006616 161.74262424 73.77332355 168.36486505 74.25 174.9375 C74.52508751 178.5289203 75.10791441 181.50597336 76.375 184.875 C79.43437569 193.35986951 78.04759728 202.03604278 74.8125 210.3125 C73.69875 211.6428125 73.69875 211.6428125 72.5625 213 C70.43642855 215.28025275 70.43642855 215.28025275 71.0625 218.6875 C71.18882812 219.36167969 71.31515625 220.03585938 71.4453125 220.73046875 C71.93222444 224.15439206 71.94251653 227.54946219 71.9375 231 C71.94007813 232.26199219 71.94265625 233.52398437 71.9453125 234.82421875 C71.8125 238.3125 71.8125 238.3125 70.8125 243.3125 C65.8625 243.3125 60.9125 243.3125 55.8125 243.3125 C56.1425 241.95125 56.4725 240.59 56.8125 239.1875 C57.64242496 235.48790494 58.00775704 232.12001232 57.8125 228.3125 C57.1525 228.3125 56.4925 228.3125 55.8125 228.3125 C55.4825 226.0025 55.1525 223.6925 54.8125 221.3125 C53.1625 220.9825 51.5125 220.6525 49.8125 220.3125 C49.8846875 220.96734375 49.956875 221.6221875 50.03125 222.296875 C50.1240625 223.20953125 50.216875 224.1221875 50.3125 225.0625 C50.4053125 225.94421875 50.498125 226.8259375 50.59375 227.734375 C50.91064779 232.91791746 50.8125 238.11927974 50.8125 243.3125 C38.9325 243.3125 27.0525 243.3125 14.8125 243.3125 C14.8125 239.6825 14.8125 236.0525 14.8125 232.3125 C14.4825 230.9925 14.1525 229.6725 13.8125 228.3125 C-0.3775 228.3125 -14.5675 228.3125 -29.1875 228.3125 C-29.1875 227.6525 -29.1875 226.9925 -29.1875 226.3125 C-29.89132813 226.24256836 -30.59515625 226.17263672 -31.3203125 226.10058594 C-44.89738931 224.72249492 -58.0781981 223.21360646 -71.1875 219.3125 C-71.21659763 222.56248112 -71.23433161 225.81242857 -71.25 229.0625 C-71.25837891 229.98289063 -71.26675781 230.90328125 -71.27539062 231.8515625 C-71.27861328 232.74101562 -71.28183594 233.63046875 -71.28515625 234.546875 C-71.29039307 235.36381836 -71.29562988 236.18076172 -71.30102539 237.02246094 C-71.24615863 239.62810936 -71.24615863 239.62810936 -70.1875 243.3125 C-74.8075 243.3125 -79.4275 243.3125 -84.1875 243.3125 C-86.95168353 235.53823381 -86.60705669 228.02793853 -85.4375 219.9375 C-84.95201934 216.13635311 -84.95201934 216.13635311 -86.9375 212.875 C-87.68 212.029375 -88.4225 211.18375 -89.1875 210.3125 C-93.23270002 199.99723994 -93.43009795 190.51232098 -89.1875 180.3125 C-88.6925 179.3225 -88.6925 179.3225 -88.1875 178.3125 C-88.05553725 176.20989355 -87.95695796 174.10514868 -87.875 172 C-87.3682175 163.93301961 -85.21109795 156.77724166 -82.41796875 149.234375 C-82.08635667 146.46906751 -83.12050819 145.07343795 -84.5 142.6875 C-90.34063593 131.63896371 -90.19975192 120.49649482 -87.2265625 108.58984375 C-84.49709678 99.98073946 -79.6829545 92.57358243 -73.1875 86.3125 C-72.1975 85.8175 -72.1975 85.8175 -71.1875 85.3125 C-71.20321045 84.46655273 -71.2189209 83.62060547 -71.23510742 82.74902344 C-71.28683945 79.55080516 -71.32413906 76.35280309 -71.35229492 73.15429688 C-71.36719923 71.78117774 -71.38752997 70.40810461 -71.41381836 69.03515625 C-71.64439912 56.6651765 -70.72315177 44.60561094 -63.1875 34.3125 C-59.50528277 30.53051826 -56.26608282 28.1721821 -50.9375 28 C-46.21006432 28.09076677 -43.76310441 29.05472709 -40.1875 32.3125 C-38.01485306 35.21435718 -36.05786905 38.20848328 -34.1875 41.3125 C-33.82398438 40.62285156 -33.46046875 39.93320312 -33.0859375 39.22265625 C-30.5301048 34.44521512 -27.99100616 29.98814742 -24.6875 25.6875 C-22.54690997 22.62227573 -22.54690997 22.62227573 -22.36328125 19 C-22.78371712 17.47301818 -23.22996712 15.95288282 -23.703125 14.44140625 C-24.56207642 10.66617623 -23.16540295 8.489132 -21.1875 5.3125 C-15.05084132 -1.08406422 -8.6245216 -3.99045029 0 0 Z M-52.1875 41.3125 C-58.27690085 52.27342153 -58.80557275 63.00854006 -58.1875 75.3125 C-57.8575 75.9725 -57.5275 76.6325 -57.1875 77.3125 C-51.7425 76.8175 -51.7425 76.8175 -46.1875 76.3125 C-43.15655427 65.29680478 -42.27541181 56.20762849 -47.125 45.625 C-48.84909497 42.07075198 -48.84909497 42.07075198 -52.1875 41.3125 Z M35.8125 41.3125 C28.78180774 53.68329822 28.07930537 62.56390686 31.8125 76.3125 C35.7725 76.6425 39.7325 76.9725 43.8125 77.3125 C44.68362502 58.49899542 44.68362502 58.49899542 37.8125 41.3125 C37.1525 41.3125 36.4925 41.3125 35.8125 41.3125 Z M-68.1875 100.3125 C-74.68591837 109.80382861 -76.17263479 118.91136691 -75.1875 130.3125 C-73.93708744 134.93387013 -72.04266179 138.31481125 -68.9375 141.9375 C-67.1875 144.3125 -67.1875 144.3125 -66.625 147.625 C-67.26013174 151.7886414 -68.63654009 153.87548727 -70.94140625 157.296875 C-75.24371595 164.25609696 -74.40317995 172.45216419 -74.1875 180.3125 C-60.23536329 183.25598876 -46.40091451 186.05363939 -32.1875 187.3125 C-31.06988281 187.42335938 -29.95226562 187.53421875 -28.80078125 187.6484375 C1.13842576 190.17466477 30.56275745 187.84146039 59.8125 181.3125 C60.39631383 166.46034126 60.39631383 166.46034126 54.5625 153.125 C52.8125 150.3125 52.8125 150.3125 52.8125 146.75 C53.90199955 143.00484531 55.31194468 141.25432979 57.8125 138.3125 C62.53356431 129.56978832 62.597204 120.61943105 59.8828125 111.16796875 C56.73869694 102.77983564 50.71343213 95.17139988 42.546875 91.21484375 C34.83299935 88.39429398 28.41176426 89.10772708 20.8125 91.75 C1.40165394 98.3876169 -22.19594758 96.8840346 -41.390625 89.890625 C-51.36195127 86.68245916 -61.76838401 93.0212992 -68.1875 100.3125 Z " fill="#F46A6A" transform="translate(135.1875,12.6875)"/>
<path d="M0 0 C4.52966583 2.47551505 7.16586374 5.37259122 8.8125 10.3125 C8.90475211 11.81024018 8.9425019 13.31192974 8.9375 14.8125 C8.94136719 15.97265625 8.94136719 15.97265625 8.9453125 17.15625 C8.8125 19.3125 8.8125 19.3125 7.8125 22.3125 C9.47814039 25.03519521 9.47814039 25.03519521 11.8125 28 C17.52474548 35.79868061 21.37681632 44.36308167 24.56738281 53.46630859 C25.88106759 57.1986387 27.04337015 59.56712774 29.8125 62.3125 C31.6913386 67.42746528 32.15039011 72.06495311 32.125 77.4375 C32.14111328 78.12714844 32.15722656 78.81679687 32.17382812 79.52734375 C32.17807818 83.97289679 31.82465013 86.97098952 28.8125 90.3125 C26.15815949 91.47011987 23.82405224 92.31163999 21.0625 93.0625 C20.3715625 93.27003906 19.680625 93.47757812 18.96875 93.69140625 C0.33825924 99.11946277 -25.34057932 98.45320066 -43.1875 90.3125 C-46.42741727 86.28308564 -46.66227428 82.49163114 -46.5625 77.5 C-46.55452393 76.78948486 -46.54654785 76.07896973 -46.53833008 75.34692383 C-46.39241387 69.9800394 -45.68878301 66.03714569 -43.1875 61.3125 C-42.70410156 60.89355469 -42.22070312 60.47460938 -41.72265625 60.04296875 C-39.44811968 57.47905094 -38.90289725 54.70761322 -37.9375 51.4375 C-34.97156186 41.95156202 -30.63870326 33.49839151 -24.625 25.5625 C-22.52173869 22.56264331 -22.52173869 22.56264331 -22.3671875 19.0078125 C-22.7844754 17.47775686 -23.22933002 15.95491798 -23.703125 14.44140625 C-24.56207642 10.66617623 -23.16540295 8.489132 -21.1875 5.3125 C-15.05084132 -1.08406422 -8.6245216 -3.99045029 0 0 Z " fill="#E00F04" transform="translate(135.1875,12.6875)"/>
<path d="M0 0 C7.45286683 4.11101195 11.0493123 11.29798979 13.7109375 19.078125 C16.29049411 28.87296313 16.4106373 39.53876328 15.0625 49.5 C14.58762639 54.18117412 14.58762639 54.18117412 16.5 58.296875 C18.54607298 60.28095257 18.54607298 60.28095257 20.796875 62.08203125 C28.75073043 69.0063983 32.45762555 80.8780011 33.23828125 91.12890625 C33.44397772 100.6450745 32.20598892 108.99064232 27 117.125 C25.56721826 121.24424751 27.12036224 123.43904824 28.87109375 127.29296875 C32.04005143 134.89188802 32.23530004 142.88214848 32 151 C27.38 151.33 22.76 151.66 18 152 C17.8453125 148.844375 17.8453125 148.844375 17.6875 145.625 C17.13077539 137.97003665 16.23914522 131.1721224 11.75 124.8125 C10 122 10 122 10 118.4375 C11.08949955 114.69234531 12.49944468 112.94182979 15 110 C19.72131978 101.25681521 19.7803503 92.31246801 17.07421875 82.859375 C14.335069 75.56825639 9.62608308 69.19696912 3 65 C-2.15414793 62.66552803 -7.40124242 61.59561251 -13 61 C-12.68289062 60.43796875 -12.36578125 59.8759375 -12.0390625 59.296875 C-10.93125475 56.84803683 -10.61024601 54.91612145 -10.375 52.25 C-10.30023438 51.45078125 -10.22546875 50.6515625 -10.1484375 49.828125 C-10.09945312 49.22484375 -10.05046875 48.6215625 -10 48 C-5.81998005 47.91803882 -2.07787895 48.10554296 2 49 C1.67086787 30.97945197 1.67086787 30.97945197 -4 14 C-4.66 14 -5.32 14 -6 14 C-9.09761199 20.22529789 -10.91081033 26.13523882 -12 33 C-15.55683989 31.54658904 -15.90536652 31.21576434 -17.5625 27.4375 C-17.789375 26.72335938 -18.01625 26.00921875 -18.25 25.2734375 C-18.95526079 22.97137162 -18.95526079 22.97137162 -20.0625 20.7890625 C-21.12544938 18.42233927 -21.79352486 16.59192197 -22 14 C-18.23857121 4.60398109 -10.26269788 -1.93450216 0 0 Z " fill="#000000" transform="translate(177,41)"/>
<path d="M0 0 C5.1163018 2.20703215 8.44568253 6.09214054 11.19140625 10.86328125 C12.88084001 17.41697841 9.89706394 24.1190937 7 30 C4.8046875 31.97265625 4.8046875 31.97265625 3 33 C2.68546875 31.89140625 2.3709375 30.7828125 2.046875 29.640625 C1.61525904 28.17688392 1.18292971 26.71335305 0.75 25.25 C0.54503906 24.52039063 0.34007812 23.79078125 0.12890625 23.0390625 C-1.17034215 18.70823449 -2.37368855 15.94444092 -6 13 C-10.98352246 24.89545144 -11.38402943 36.32702877 -11 49 C-10.12601563 48.75443359 -10.12601563 48.75443359 -9.234375 48.50390625 C-6.14263232 47.8066426 -3.15713607 47.93928584 0 48 C0.66 52.29 1.32 56.58 2 61 C-0.7225 61.5878125 -0.7225 61.5878125 -3.5 62.1875 C-13.52810406 64.74460761 -19.49375446 69.17252699 -25 78 C-29.21818555 85.86796312 -29.56011862 96.28756568 -27.23828125 104.7890625 C-25.78132248 108.23278322 -24.19030137 110.77798174 -21.75 113.625 C-20 116 -20 116 -19.4375 119.3125 C-20.07277954 123.4771103 -21.4476579 125.56482412 -23.7578125 128.984375 C-27.89676544 135.70041184 -27.55797435 144.36924146 -28 152 C-30.1462026 151.85970581 -32.29196218 151.71261836 -34.4375 151.5625 C-36.22994141 151.44068359 -36.22994141 151.44068359 -38.05859375 151.31640625 C-41 151 -41 151 -42 150 C-42.07454396 139.68311616 -39.78798736 130.52898108 -36.23046875 120.921875 C-35.89885667 118.15656751 -36.93300819 116.76093795 -38.3125 114.375 C-44.15313593 103.32646371 -44.01225192 92.18399482 -41.0390625 80.27734375 C-38.30959678 71.66823946 -33.4954545 64.26108243 -27 58 C-26.01 57.505 -26.01 57.505 -25 57 C-25.01571045 56.15405273 -25.0314209 55.30810547 -25.04760742 54.43652344 C-25.09933945 51.23830516 -25.13663906 48.04030309 -25.16479492 44.84179688 C-25.17969923 43.46867774 -25.20002997 42.09560461 -25.22631836 40.72265625 C-25.45689912 28.3526765 -24.53565177 16.29311094 -17 6 C-11.72478798 0.58186352 -7.411483 -0.84021888 0 0 Z " fill="#000000" transform="translate(89,41)"/>
<path d="M0 0 C3.90245728 0.25589884 7.06927418 1.15284761 10.8125 2.25 C17.60048857 3.36002358 24.44910199 3.47737402 31.3125 3.5 C32.35897705 3.50394775 33.4054541 3.50789551 34.48364258 3.51196289 C41.68950157 3.45850451 48.51505792 2.80292836 55.546875 1.22949219 C59.28525034 0.40236705 62.14378019 -0.00175921 65.8125 1.25 C69.8328904 6.56265875 70.01527894 11.71231236 70.0625 18.1875 C70.083125 18.89068359 70.10375 19.59386719 70.125 20.31835938 C70.15879845 24.82622772 69.88545438 27.8660919 66.8125 31.25 C64.15815949 32.40761987 61.82405224 33.24913999 59.0625 34 C58.3715625 34.20753906 57.680625 34.41507813 56.96875 34.62890625 C38.33825924 40.05696277 12.65942068 39.39070066 -5.1875 31.25 C-8.42761532 27.22033934 -8.66170531 23.42927783 -8.5625 18.4375 C-8.55524902 17.72770996 -8.54799805 17.01791992 -8.54052734 16.28662109 C-8.37211972 9.90909748 -7.83760092 0.6147138 0 0 Z " fill="#E2DFDF" transform="translate(97.1875,71.75)"/>
<path d="M0 0 C5.52889443 0.41357872 10.97945756 0.94866778 16.4375 1.9375 C34.15511689 4.97351108 52.06510919 5.50158347 70 6 C70.05510734 8.12469393 70.09328102 10.24982824 70.125 12.375 C70.14820313 13.55835938 70.17140625 14.74171875 70.1953125 15.9609375 C70.11906711 20.74963989 69.05048425 25.34447173 68 30 C35.93730777 30.42536483 35.93730777 30.42536483 22 28 C21.10152344 27.84450684 20.20304687 27.68901367 19.27734375 27.52880859 C14.54177746 26.6940941 9.81309094 25.82453424 5.09375 24.90234375 C4.32740234 24.75273193 3.56105469 24.60312012 2.77148438 24.44897461 C1 24 1 24 0 23 C-2.95714286 5.91428571 -2.95714286 5.91428571 0 0 Z " fill="#FE9C9C" transform="translate(66,202)"/>
<path d="M0 0 C6.46497093 4.5647578 10.01926273 10.03825693 12.50390625 17.4921875 C13.24266425 24.69507798 12.34945283 30.83839882 7.83984375 36.62890625 C0.75790419 44.26103633 -6.85999364 47.05644788 -17.125 47.73046875 C-28.27502987 47.94084667 -38.50583176 47.15068004 -47.55859375 39.8671875 C-52.7543828 34.73825602 -54.97539177 29.13710134 -55.99609375 21.9921875 C-54.68490351 12.81385579 -50.86457936 6.15058089 -43.49609375 0.4921875 C-29.89280083 -7.71880913 -13.75267943 -8.30756535 0 0 Z M-43.49609375 13.4921875 C-46.07634471 17.69985165 -46.15719825 21.68035096 -45.49609375 26.4921875 C-42.92951804 31.93332801 -39.71164142 33.93182773 -34.49609375 36.4921875 C-30.26601241 37.90221461 -26.24015642 37.71659003 -21.80859375 37.7421875 C-20.93525391 37.7628125 -20.06191406 37.7834375 -19.16210938 37.8046875 C-12.52414627 37.84434673 -6.83952114 37.11236874 -1.4375 32.87890625 C1.56436021 29.17973008 3.60511334 26.45133489 3.50390625 21.4921875 C2.41650704 15.46206459 -0.53586332 11.74976233 -5.2578125 7.96875 C-17.71017914 -0.24590025 -33.78858512 2.42848281 -43.49609375 13.4921875 Z " fill="#000000" transform="translate(149.49609375,136.5078125)"/>
<path d="M0 0 C0.90878906 0.19916016 0.90878906 0.19916016 1.8359375 0.40234375 C2.67382812 0.57894531 3.51171875 0.75554687 4.375 0.9375 C5.18710938 1.11152344 5.99921875 1.28554687 6.8359375 1.46484375 C15.51880895 2.93342818 24.14463421 3.18237894 32.9375 3.1875 C34.59168945 3.20586914 34.59168945 3.20586914 36.27929688 3.22460938 C42.57018599 3.23574369 48.41256657 2.76996001 54.56469727 1.4309082 C57.09195331 0.98372956 59.43897279 0.92769335 62 1 C63.06723961 4.46222615 63.10173486 7.64039266 63.0625 11.25 C63.05347656 12.32765625 63.04445313 13.4053125 63.03515625 14.515625 C63.02355469 15.33546875 63.01195312 16.1553125 63 17 C46.1694543 25.95889513 23.03162106 25.0596812 5 20 C2.97318485 19.05553172 0.96269001 18.07137666 -1 17 C-1.02721176 15.10424749 -1.04649136 13.20838021 -1.0625 11.3125 C-1.07410156 10.25675781 -1.08570312 9.20101562 -1.09765625 8.11328125 C-1.00865425 5.27589738 -0.64939838 2.7561081 0 0 Z " fill="#FEFEFD" transform="translate(97,79)"/>
<path d="M0 0 C0 7.26 0 14.52 0 22 C-9.01371429 25.38014286 -9.01371429 25.38014286 -12.375 25.9140625 C-13.12547607 26.03483154 -13.87595215 26.15560059 -14.64916992 26.2800293 C-15.42494385 26.39386963 -16.20071777 26.50770996 -17 26.625 C-17.81509033 26.74979736 -18.63018066 26.87459473 -19.4699707 27.00317383 C-27.30568619 28.14795553 -35.09153804 28.63722652 -43 29 C-42.67 21.08 -42.34 13.16 -42 5 C-40.10636719 4.80664062 -38.21273437 4.61328125 -36.26171875 4.4140625 C-33.73695623 4.15126194 -31.21221792 3.88822874 -28.6875 3.625 C-27.44419922 3.49867188 -26.20089844 3.37234375 -24.91992188 3.2421875 C-18.27511519 2.54457 -11.73577647 1.6928096 -5.18286133 0.38037109 C-3 0 -3 0 0 0 Z " fill="#FE9B9B" transform="translate(192,202)"/>
<path d="M0 0 C4.52966583 2.47551505 7.16586374 5.37259122 8.8125 10.3125 C9.54093702 14.50929057 9.68255864 17.90702066 7.390625 21.609375 C3.84166665 25.7649929 0.82981327 28.87353406 -4.73828125 29.68359375 C-10.48231559 29.82171056 -14.36151704 29.53857875 -18.8203125 25.73046875 C-22.71632924 21.68974281 -23.99437966 17.91298997 -24.1875 12.3125 C-22.48954232 6.26352578 -19.2786605 2.76060416 -14.1875 -0.6875 C-9.08425799 -2.38858067 -4.86876566 -2.25271247 0 0 Z " fill="#E4E2E2" transform="translate(135.1875,12.6875)"/>
<path d="M0 0 C13.86 0.495 13.86 0.495 28 1 C28 15 28 15 26 25 C16.43 25 6.86 25 -3 25 C-2.34 24.67 -1.68 24.34 -1 24 C-1.01160156 22.77023438 -1.02320312 21.54046875 -1.03515625 20.2734375 C-1.04454022 18.64062653 -1.05363977 17.0078139 -1.0625 15.375 C-1.07087891 14.56675781 -1.07925781 13.75851563 -1.08789062 12.92578125 C-1.09111328 12.13300781 -1.09433594 11.34023437 -1.09765625 10.5234375 C-1.10551147 9.4394165 -1.10551147 9.4394165 -1.11352539 8.33349609 C-0.97734286 5.53428619 -0.46073155 2.7643893 0 0 Z " fill="#FE9B9B" transform="translate(108,207)"/>
<path d="M0 0 C2.95236876 9.04162934 2.85453537 18.72732313 1 28 C-3.95 28 -8.9 28 -14 28 C-13.505 25.958125 -13.505 25.958125 -13 23.875 C-12.17007504 20.17540494 -11.80474296 16.80751232 -12 13 C-12.66 13 -13.32 13 -14 13 C-14.33 10.36 -14.66 7.72 -15 5 C-10.34926862 2.5044856 -5.38826138 0 0 0 Z " fill="#020000" transform="translate(205,228)"/>
<path d="M0 0 C5.94 1.485 5.94 1.485 12 3 C13.24654742 7.98618966 13.0473774 12.7094714 12.9609375 17.80078125 C12.92249196 21.45951487 13.10563147 24.42252589 14 28 C9.38 28 4.76 28 0 28 C-3.35512822 18.56370189 -2.22457025 9.59345922 0 0 Z " fill="#010000" transform="translate(51,228)"/>
<path d="M0 0 C4.62 0 9.24 0 14 0 C14.02706445 2.89589652 14.04687029 5.79153795 14.0625 8.6875 C14.07087891 9.50412109 14.07925781 10.32074219 14.08789062 11.16210938 C14.10442051 15.24499084 14.03035098 19.01651707 13 23 C13.99 23.33 14.98 23.66 16 24 C10.06 24 4.12 24 -2 24 C-1.855625 22.63875 -1.71125 21.2775 -1.5625 19.875 C-0.89718123 13.25983051 -0.45517645 6.6325711 0 0 Z " fill="#FE9B9B" transform="translate(136,208)"/>
<path d="M0 0 C4.62 0 9.24 0 14 0 C14.02693321 3.27088814 14.04680664 6.54155522 14.0625 9.8125 C14.07087891 10.74126953 14.07925781 11.67003906 14.08789062 12.62695312 C14.09111328 13.51962891 14.09433594 14.41230469 14.09765625 15.33203125 C14.10289307 16.15421143 14.10812988 16.9763916 14.11352539 17.82348633 C14 20 14 20 13 23 C8.09748502 23.980503 4.19057759 24 -1 24 C-0.67 16.08 -0.34 8.16 0 0 Z " fill="#FEFBFA" transform="translate(150,207)"/>
<path d="M0 0 C1.77119803 0.14133499 3.54195287 0.28823208 5.3125 0.4375 C6.29863281 0.51871094 7.28476563 0.59992188 8.30078125 0.68359375 C11 1 11 1 14 2 C13.67 9.92 13.34 17.84 13 26 C1.125 24.125 1.125 24.125 0 23 C-2.95714286 5.91428571 -2.95714286 5.91428571 0 0 Z " fill="#FEFAF9" transform="translate(66,202)"/>
<path d="M0 0 C2.7106722 0.42087527 5.37526959 0.89821806 8.0625 1.4375 C8.82111328 1.58509766 9.57972656 1.73269531 10.36132812 1.88476562 C12.24188598 2.25141527 14.12107695 2.62506271 16 3 C15.01 3.495 15.01 3.495 14 4 C14 11.59 14 19.18 14 27 C5 25 5 25 1 23 C-1.57903128 18.67178347 -1.26567614 14.12983717 -1.1875 9.25 C-1.18685547 8.47011719 -1.18621094 7.69023437 -1.18554688 6.88671875 C-1.14057707 1.14057707 -1.14057707 1.14057707 0 0 Z " fill="#FE9999" transform="translate(52,198)"/>
<path d="M0 0 C0 7.26 0 14.52 0 22 C-8 25 -8 25 -14 25 C-14 17.41 -14 9.82 -14 2 C-3 0 -3 0 0 0 Z " fill="#FEFBFA" transform="translate(192,202)"/>
<path d="M0 0 C4.29 0 8.58 0 13 0 C13.1648008 8.40484057 12.9794297 15.83485248 11 24 C7.04 24 3.08 24 -1 24 C-1.02698386 20.7499444 -1.04683141 17.50011314 -1.0625 14.25 C-1.07087891 13.32960937 -1.07925781 12.40921875 -1.08789062 11.4609375 C-1.09111328 10.57148438 -1.09433594 9.68203125 -1.09765625 8.765625 C-1.10289307 7.94868164 -1.10812988 7.13173828 -1.11352539 6.29003906 C-1 4 -1 4 0 0 Z " fill="#FEFAFA" transform="translate(123,208)"/>
<path d="M0 0 C3.96 0 7.92 0 12 0 C11.67 7.92 11.34 15.84 11 24 C6.71 24 2.42 24 -2 24 C-2.05425013 21.12474331 -2.09379277 18.25052354 -2.125 15.375 C-2.14175781 14.56675781 -2.15851563 13.75851563 -2.17578125 12.92578125 C-2.21420986 8.19906185 -1.82737094 4.44612298 0 0 Z " fill="#FEFAF9" transform="translate(96,207)"/>
<path d="M0 0 C0.08152344 2.54232342 0.14073716 5.08199202 0.1875 7.625 C0.22520508 8.69427734 0.22520508 8.69427734 0.26367188 9.78515625 C0.32930942 14.55481807 0.12762298 18.17048677 -3 22 C-8.445 23.485 -8.445 23.485 -14 25 C-14 17.08 -14 9.16 -14 1 C-3.875 -1.25 -3.875 -1.25 0 0 Z " fill="#FE9B9B" transform="translate(205,200)"/>
<path d="M0 0 C3.97220541 1.32406847 5.18055735 3.79788731 7.3125 7.1875 C7.70767822 7.81027832 8.10285645 8.43305664 8.51000977 9.07470703 C13.84861983 17.72023819 18.00051437 27.00257183 20 37 C16.535 37.495 16.535 37.495 13 38 C12.58363281 36.84371094 12.16726562 35.68742187 11.73828125 34.49609375 C10.13132315 30.2174619 8.24304911 26.14172924 6.1875 22.0625 C5.84074219 21.37027344 5.49398437 20.67804687 5.13671875 19.96484375 C2.46094602 14.71167229 -0.50970208 9.75949717 -4 5 C-2.68 3.35 -1.36 1.7 0 0 Z " fill="#B91B13" transform="translate(141,35)"/>
<path d="M0 0 C0.66 0 1.32 0 2 0 C3.38232443 1.62626404 4.71937515 3.2925002 6 5 C5.41992188 5.85980469 4.83984375 6.71960937 4.2421875 7.60546875 C-2.17074452 17.25443531 -7.4478904 26.89759231 -11 38 C-13.31 37.67 -15.62 37.34 -18 37 C-14.55118496 23.7492896 -9.10508339 10.40580959 0 0 Z " fill="#B91B12" transform="translate(113,35)"/>
<path d="M0 0 C2.50959447 2.37751055 3.72939238 4.27837967 4.9375 7.5 C5.02040008 10.81600302 3.93033295 12.35472891 2 15 C0 17 0 17 -3.8125 17.5 C-7.49928685 17.39926812 -7.97916678 17.01779504 -11 14.4375 C-13.30534479 10.47518864 -13.75074136 8.50444819 -13 4 C-9.01693752 -1.04521248 -6.191012 -1.49438221 0 0 Z " fill="#000000" transform="translate(174,133)"/>
<path d="M0 0 C3.00204281 2.42100227 3.00935621 4.07368015 3.5 7.9375 C3.35229474 11.23009652 2.93289241 12.10066139 1 15 C-3.17528818 17.78352545 -5.04621883 17.78631447 -10 17 C-13.24985922 14.31886615 -13.89575014 12.64866582 -14.5625 8.5 C-13.85937571 4.1250044 -12.39240693 2.74623418 -9 0 C-5.8168485 -1.59157575 -3.38676935 -0.77242108 0 0 Z " fill="#000000" transform="translate(92,133)"/>
<path d="M0 0 C3.125 2 3.125 2 5 5 C5.41610059 8.88864911 4.85480866 11.90584492 2.4375 15 C-1.08884527 16.44670575 -4.2985721 16.76960382 -8 16 C-11 13.9375 -11 13.9375 -13 11 C-13.6198676 7.07417186 -13.58925458 4.99917081 -11.5625 1.5625 C-7.74085472 -0.76777151 -4.35435071 -0.87396382 0 0 Z " fill="#FEFEFD" transform="translate(132,19)"/>
<path d="M0 0 C0 3.63 0 7.26 0 11 C-6.93 11 -13.86 11 -21 11 C-21 7.7 -21 4.4 -21 1 C-17.87503282 0.83269774 -14.75002955 0.66612944 -11.625 0.5 C-10.73554688 0.45230469 -9.84609375 0.40460938 -8.9296875 0.35546875 C-7.65351563 0.28779297 -7.65351563 0.28779297 -6.3515625 0.21875 C-5.56604004 0.17685547 -4.78051758 0.13496094 -3.97119141 0.09179688 C-2.64854076 0.03020205 -1.32408408 0 0 0 Z " fill="#FEFCFB" transform="translate(178,245)"/>
<path d="M0 0 C0 3.3 0 6.6 0 10 C-2.296537 11.1482685 -3.58313167 11.11561175 -6.1328125 11.09765625 C-6.93847656 11.09443359 -7.74414062 11.09121094 -8.57421875 11.08789062 C-9.41597656 11.07951172 -10.25773438 11.07113281 -11.125 11.0625 C-11.97449219 11.05798828 -12.82398438 11.05347656 -13.69921875 11.04882812 C-15.79950909 11.03702874 -17.8997633 11.01909306 -20 11 C-20 8.03 -20 5.06 -20 2 C-13.25846717 0.74158054 -6.86515862 -0.26404456 0 0 Z " fill="#FE9B9B" transform="translate(178,235)"/>
<path d="M0 0 C1.08152344 -0.01417969 2.16304687 -0.02835938 3.27734375 -0.04296875 C6.0625 0.1875 6.0625 0.1875 8.0625 2.1875 C7.6875 4.8125 7.6875 4.8125 7.0625 7.1875 C6.0725 7.5175 5.0825 7.8475 4.0625 8.1875 C4.10375 9.30125 4.145 10.415 4.1875 11.5625 C4.0625 15.1875 4.0625 15.1875 2.0625 17.1875 C-1.0625 16.8125 -1.0625 16.8125 -3.9375 16.1875 C-4.040625 15.094375 -4.14375 14.00125 -4.25 12.875 C-4.56563565 9.25303649 -4.56563565 9.25303649 -6.5625 7.5625 C-7.01625 7.10875 -7.47 6.655 -7.9375 6.1875 C-7.34836879 0.00162228 -5.8741724 0.03492374 0 0 Z " fill="#000000" transform="translate(127.9375,149.8125)"/>
<path d="M0 0 C2 2 2 2 2.375 5.375 C2 9 2 9 0.3125 11.375 C-2.32888621 13.23110923 -3.75925076 14 -7 14 C-9.8125 12.4375 -9.8125 12.4375 -12 10 C-12.74831873 6.09211332 -12.34659888 4.53782585 -10.1875 1.1875 C-6.48393197 -2.51606803 -4.46041732 -2.17302382 0 0 Z " fill="#D0E0E6" transform="translate(35,28)"/>
<path d="M0 0 C2.8125 0.9375 2.8125 0.9375 4.8125 3.9375 C4.59456897 10.03956897 4.59456897 10.03956897 2.125 12.875 C-0.90719746 14.26817181 -2.88880212 14.42879543 -6.1875 13.9375 C-8.125 12.3125 -8.125 12.3125 -9.1875 9.9375 C-9.1875 6.01600898 -8.63036913 4.43098274 -6 1.5 C-3.1875 -0.0625 -3.1875 -0.0625 0 0 Z " fill="#D0E0E6" transform="translate(236.1875,112.0625)"/>
<path d="M0 0 C3.125 0.75 3.125 0.75 6 2 C7.54163175 5.0832635 7.29747535 7.60878099 7 11 C5.3125 13 5.3125 13 3 14 C0.4375 14 0.4375 14 -2 13 C-3.9375 10.8125 -3.9375 10.8125 -5 8 C-4.375 4.8125 -4.375 4.8125 -3 2 C-2.01 1.34 -1.02 0.68 0 0 Z " fill="#D0E0E6" transform="translate(19,94)"/>
<path d="M0 0 C4.75 0.75 4.75 0.75 7 3 C7.55416667 9.09583333 7.55416667 9.09583333 5.8125 11.9375 C3.37896796 13.36405327 1.77457104 13.35571424 -1 13 C-3 11 -3 11 -3.3125 7.625 C-2.99258956 3.9140389 -2.5224581 2.62756052 0 0 Z " fill="#CFDEE4" transform="translate(15,168)"/>
<path d="M0 0 C3.625 0.375 3.625 0.375 7 1 C7.75 3.75 7.75 3.75 8 7 C6.375 9.4375 6.375 9.4375 4 11 C1.375 10.9375 1.375 10.9375 -1 10 C-3 7 -3 7 -2.75 4.4375 C-2 2 -2 2 0 0 Z " fill="#D0E1E7" transform="translate(221,75)"/>
<path d="M0 0 C0.33 2.31 0.66 4.62 1 7 C-0.6875 8.5625 -0.6875 8.5625 -3 10 C-7.41025641 9.58974359 -7.41025641 9.58974359 -9 8 C-9.45378151 2.78151261 -9.45378151 2.78151261 -7.875 0.0625 C-5.07329973 -1.52513015 -3.03014356 -0.74070176 0 0 Z " fill="#D0E1E7" transform="translate(37,225)"/>
<path d="M0 0 C2.6875 0.875 2.6875 0.875 5 2 C5.625 5.375 5.625 5.375 6 9 C4 11 4 11 1 11.3125 C0.01 11.209375 -0.98 11.10625 -2 11 C-4 8 -4 8 -3.8125 4.9375 C-3 2 -3 2 0 0 Z " fill="#D0E0E6" transform="translate(209,15)"/>
<path d="M0 0 C2 3 2 3 1.75 5.5625 C1 8 1 8 -1 10 C-4 9.875 -4 9.875 -7 9 C-8.5 7.1875 -8.5 7.1875 -9 5 C-7.35647444 0.20638378 -4.86792677 -0.48679268 0 0 Z " fill="#CFDFE5" transform="translate(226,171)"/>
<path d="M0 0 C2 3 2 3 1.625 5.6875 C1.41875 6.450625 1.2125 7.21375 1 8 C-1.8125 9.125 -1.8125 9.125 -5 10 C-5.99 9.34 -6.98 8.68 -8 8 C-7.74438677 5.6568787 -7.40729228 3.32156597 -7 1 C-4.46578263 -0.26710868 -2.80561762 -0.28056176 0 0 Z " fill="#CFDFE6" transform="translate(246,209)"/>
<path d="M0 0 C2.5 -0.3125 2.5 -0.3125 5 0 C5.66 0.66 6.32 1.32 7 2 C6.67028521 5.29714793 6.3773161 6.6226839 4 9 C1.375 8.625 1.375 8.625 -1 8 C-1.625 5.6875 -1.625 5.6875 -2 3 C-1.34 2.01 -0.68 1.02 0 0 Z " fill="#D0E0E6" transform="translate(170,13)"/>
<path d="M0 0 C4.55555556 0.55555556 4.55555556 0.55555556 6 2 C6.125 4.5 6.125 4.5 6 7 C5.67 7.33 5.34 7.66 5 8 C2.66055264 7.71269945 0.3260857 7.38063221 -2 7 C-2.125 4.625 -2.125 4.625 -2 2 C-1.34 1.34 -0.68 0.68 0 0 Z " fill="#D2E1E7" transform="translate(51,63)"/>
<path d="M0 0 C2.625 0.375 2.625 0.375 5 1 C5.625 2.8125 5.625 2.8125 6 5 C5.01 6.485 5.01 6.485 4 8 C2.35 7.67 0.7 7.34 -1 7 C-1.625 4.625 -1.625 4.625 -2 2 C-1.34 1.34 -0.68 0.68 0 0 Z " fill="#D1E2E8" transform="translate(32,139)"/>
<path d="M0 0 C0.598125 0.226875 1.19625 0.45375 1.8125 0.6875 C2.4375 2.5 2.4375 2.5 2.8125 4.6875 C1.8225 6.1725 1.8225 6.1725 0.8125 7.6875 C-0.8375 7.3575 -2.4875 7.0275 -4.1875 6.6875 C-4.875 4.875 -4.875 4.875 -5.1875 2.6875 C-3.58493056 0.24147296 -2.95482043 -0.4221172 0 0 Z " fill="#D0E0E6" transform="translate(87.1875,12.3125)"/>
<path d="M0 0 C1.32 0.66 2.64 1.32 4 2 C3.67 3.65 3.34 5.3 3 7 C1.68 7.33 0.36 7.66 -1 8 C-1.66 6.35 -2.32 4.7 -3 3 C-2.01 2.01 -1.02 1.02 0 0 Z " fill="#D1E1E7" transform="translate(244,28)"/>
<path d="M0 0 C1.65 0 3.3 0 5 0 C5 1.65 5 3.3 5 5 C3.125 5.625 3.125 5.625 1 6 C0.34 5.34 -0.32 4.68 -1 4 C-0.625 1.875 -0.625 1.875 0 0 Z " fill="#D1E1E7" transform="translate(200,53)"/>
<path d="M0 0 C0.33 0.99 0.66 1.98 1 3 C0.67 3.33 0.34 3.66 0 4 C-0.33340471 6.95804573 -0.33340471 6.95804573 0 10 C0.99 10.66 1.98 11.32 3 12 C1.125 12.625 1.125 12.625 -1 13 C-3 11 -3 11 -3.3125 7.625 C-2.99258956 3.9140389 -2.5224581 2.62756052 0 0 Z " fill="#D5E4EA" transform="translate(15,168)"/>
<path d="M0 0 C1.65 0.33 3.3 0.66 5 1 C4.67 2.65 4.34 4.3 4 6 C1.525 5.01 1.525 5.01 -1 4 C-0.67 2.68 -0.34 1.36 0 0 Z " fill="#D0E1E7" transform="translate(45,89)"/>
<path d="M0 0 C8.91 0 17.82 0 27 0 C27 0.33 27 0.66 27 1 C18.09 1 9.18 1 0 1 C0 0.67 0 0.34 0 0 Z " fill="#F56A6A" transform="translate(119,199)"/>
<path d="M0 0 C0.33 0 0.66 0 1 0 C1 7.92 1 15.84 1 24 C0.67 24 0.34 24 0 24 C0 16.08 0 8.16 0 0 Z " fill="#000000" transform="translate(62,68)"/>
<path d="M0 0 C7.26 0 14.52 0 22 0 C22 0.33 22 0.66 22 1 C14.74 1 7.48 1 0 1 C0 0.67 0 0.34 0 0 Z " fill="#E9E9E9" transform="translate(119,110)"/>
<path d="M0 0 C6.6 0 13.2 0 20 0 C20 0.33 20 0.66 20 1 C13.4 1 6.8 1 0 1 C0 0.67 0 0.34 0 0 Z " fill="#000000" transform="translate(118,172)"/>
<path d="M0 0 C0.33 0 0.66 0 1 0 C1 5.94 1 11.88 1 18 C0.01 17.67 -0.98 17.34 -2 17 C-1.34 17 -0.68 17 0 17 C0 11.39 0 5.78 0 0 Z " fill="#000000" transform="translate(177,71)"/>
<path d="M0 0 C-0.33 0.99 -0.66 1.98 -1 3 C-3.31 3.33 -5.62 3.66 -8 4 C-8.33 3.34 -8.66 2.68 -9 2 C-2.25 0 -2.25 0 0 0 Z " fill="#110404" transform="translate(205,228)"/>
<path d="M0 0 C2 2 2 2 2.125 4.625 C2.08375 5.40875 2.0425 6.1925 2 7 C1.01 7 0.02 7 -1 7 C-2 4 -2 4 -1.0625 1.8125 C-0.5365625 0.9153125 -0.5365625 0.9153125 0 0 Z " fill="#D6E4EC" transform="translate(219,172)"/>
<path d="M0 0 C0.33 0 0.66 0 1 0 C1 5.28 1 10.56 1 16 C0.67 16 0.34 16 0 16 C0 10.72 0 5.44 0 0 Z " fill="#000000" transform="translate(64,235)"/>
<path d="M0 0 C5.28 0 10.56 0 16 0 C16 0.33 16 0.66 16 1 C10.72 1 5.44 1 0 1 C0 0.67 0 0.34 0 0 Z " fill="#000000" transform="translate(120,185)"/>
<path d="M0 0 C0.33 0 0.66 0 1 0 C1 4.62 1 9.24 1 14 C0.01 13.67 -0.98 13.34 -2 13 C-1.34 13 -0.68 13 0 13 C0 8.71 0 4.42 0 0 Z " fill="#270A0A" transform="translate(193,179)"/>
<path d="M0 0 C5.28 0 10.56 0 16 0 C16 0.33 16 0.66 16 1 C10.72 1 5.44 1 0 1 C0 0.67 0 0.34 0 0 Z " fill="#000000" transform="translate(120,129)"/>
<path d="M0 0 C0.33 0 0.66 0 1 0 C1 4.95 1 9.9 1 15 C0.67 15 0.34 15 0 15 C0 10.05 0 5.1 0 0 Z " fill="#000000" transform="translate(208,236)"/>
<path d="M0 0 C0.33 0 0.66 0 1 0 C1 4.95 1 9.9 1 15 C0.67 15 0.34 15 0 15 C0 10.05 0 5.1 0 0 Z " fill="#000000" transform="translate(61,128)"/>
<path d="M0 0 C4.62 0 9.24 0 14 0 C14 0.33 14 0.66 14 1 C9.38 1 4.76 1 0 1 C0 0.67 0 0.34 0 0 Z " fill="#EC6464" transform="translate(146,198)"/>
<path d="M0 0 C4.62 0 9.24 0 14 0 C14 0.33 14 0.66 14 1 C9.38 1 4.76 1 0 1 C0 0.67 0 0.34 0 0 Z " fill="#FF6D6D" transform="translate(104,198)"/>
<path d="M0 0 C0.33 0 0.66 0 1 0 C1 4.62 1 9.24 1 14 C0.67 14 0.34 14 0 14 C0 9.38 0 4.76 0 0 Z " fill="#000000" transform="translate(211,129)"/>
<path d="M0 0 C0.33 0 0.66 0 1 0 C1 4.62 1 9.24 1 14 C0.67 14 0.34 14 0 14 C0 9.38 0 4.76 0 0 Z " fill="#000000" transform="translate(78,73)"/>
<path d="M0 0 C0.33 0 0.66 0 1 0 C1.33 3.96 1.66 7.92 2 12 C1.34 12 0.68 12 0 12 C0 8.04 0 4.08 0 0 Z " fill="#200606" transform="translate(62,180)"/>
<path d="M0 0 C0.33 0 0.66 0 1 0 C1 3.96 1 7.92 1 12 C0.67 12 0.34 12 0 12 C0 8.04 0 4.08 0 0 Z " fill="#FF0000" transform="translate(187,244)"/>
<path d="M0 0 C1.32 0.33 2.64 0.66 4 1 C3.01 1 2.02 1 1 1 C1 3.64 1 6.28 1 9 C0.67 9 0.34 9 0 9 C0 6.03 0 3.06 0 0 Z " fill="#FF6161" transform="translate(186,234)"/>
<path d="M0 0 C0.33 0 0.66 0 1 0 C1 3.63 1 7.26 1 11 C0.67 11 0.34 11 0 11 C0 7.37 0 3.74 0 0 Z " fill="#000000" transform="translate(47,238)"/>
<path d="M0 0 C0.33 0 0.66 0 1 0 C1 3.63 1 7.26 1 11 C0.67 11 0.34 11 0 11 C0 7.37 0 3.74 0 0 Z " fill="#110505" transform="translate(210,182)"/>
<path d="M0 0 C0.33 0 0.66 0 1 0 C1 2.31 1 4.62 1 7 C0.01 7 -0.98 7 -2 7 C-1.34 4.69 -0.68 2.38 0 0 Z " fill="#000000" transform="translate(159,137)"/>
<path d="M0 0 C0.33 0 0.66 0 1 0 C1 1.65 1 3.3 1 5 C2.65 5 4.3 5 6 5 C6 5.33 6 5.66 6 6 C4.02 6 2.04 6 0 6 C0 4.02 0 2.04 0 0 Z " fill="#7C7C7C" transform="translate(168,82)"/>
<path d="M0 0 C0.33 0 0.66 0 1 0 C1 1.98 1 3.96 1 6 C-0.98 6 -2.96 6 -5 6 C-5 5.67 -5 5.34 -5 5 C-3.35 5 -1.7 5 0 5 C0 3.35 0 1.7 0 0 Z " fill="#7C7C7C" transform="translate(87,82)"/>
<path d="M0 0 C0.33 0 0.66 0 1 0 C1 3.3 1 6.6 1 10 C0.67 10 0.34 10 0 10 C0 6.7 0 3.4 0 0 Z " fill="#F86464" transform="translate(148,246)"/>
<path d="M0 0 C3.3 0 6.6 0 10 0 C10 0.33 10 0.66 10 1 C6.7 1 3.4 1 0 1 C0 0.67 0 0.34 0 0 Z " fill="#FF6A6A" transform="translate(95,239)"/>
<path d="M0 0 C0.33 0 0.66 0 1 0 C1 3.3 1 6.6 1 10 C0.67 10 0.34 10 0 10 C0 6.7 0 3.4 0 0 Z " fill="#FF6666" transform="translate(214,202)"/>
<path d="M0 0 C0.33 0 0.66 0 1 0 C1 3.3 1 6.6 1 10 C0.67 10 0.34 10 0 10 C0 6.7 0 3.4 0 0 Z " fill="#FF6666" transform="translate(41,202)"/>
<path d="M0 0 C0.33 0 0.66 0 1 0 C1 3.3 1 6.6 1 10 C0.67 10 0.34 10 0 10 C0 6.7 0 3.4 0 0 Z " fill="#000000" transform="translate(193,83)"/>
<path d="M0 0 C0.33 0 0.66 0 1 0 C1 3.3 1 6.6 1 10 C0.67 10 0.34 10 0 10 C0 6.7 0 3.4 0 0 Z " fill="#000000" transform="translate(193,67)"/>
<path d="M0 0 C0.33 0 0.66 0 1 0 C1 3.3 1 6.6 1 10 C0.67 10 0.34 10 0 10 C0 6.7 0 3.4 0 0 Z " fill="#D8D8D8" transform="translate(145,22)"/>
<path d="M0 0 C2.97 0 5.94 0 9 0 C9 0.33 9 0.66 9 1 C6.03 1 3.06 1 0 1 C0 0.67 0 0.34 0 0 Z " fill="#F06C6C" transform="translate(94,197)"/>
<path d="M0 0 C0.33 0 0.66 0 1 0 C1 2.97 1 5.94 1 9 C0.67 9 0.34 9 0 9 C0 6.03 0 3.06 0 0 Z " fill="#000000" transform="translate(163,154)"/>
<path d="M0 0 C0.33 0 0.66 0 1 0 C1 2.97 1 5.94 1 9 C0.67 9 0.34 9 0 9 C0 6.03 0 3.06 0 0 Z " fill="#000000" transform="translate(105,154)"/>
<path d="M0 0 C0.33 0 0.66 0 1 0 C1 2.97 1 5.94 1 9 C0.67 9 0.34 9 0 9 C0 6.03 0 3.06 0 0 Z " fill="#000000" transform="translate(44,131)"/>
<path d="M0 0 C2.97 0 5.94 0 9 0 C9 0.33 9 0.66 9 1 C6.03 1 3.06 1 0 1 C0 0.67 0 0.34 0 0 Z " fill="#000000" transform="translate(168,39)"/>
<path d="M0 0 C2.97 0 5.94 0 9 0 C9 0.33 9 0.66 9 1 C6.03 1 3.06 1 0 1 C0 0.67 0 0.34 0 0 Z " fill="#000000" transform="translate(80,39)"/>
<path d="M0 0 C2.64 0 5.28 0 8 0 C8 0.33 8 0.66 8 1 C5.36 1 2.72 1 0 1 C0 0.67 0 0.34 0 0 Z " fill="#E46565" transform="translate(161,197)"/>
<path d="M0 0 C2.64 0 5.28 0 8 0 C8 0.33 8 0.66 8 1 C5.36 1 2.72 1 0 1 C0 0.67 0 0.34 0 0 Z " fill="#D75252" transform="translate(86,196)"/>
<path d="M0 0 C0.33 0 0.66 0 1 0 C1 2.64 1 5.28 1 8 C0.67 8 0.34 8 0 8 C0 5.36 0 2.72 0 0 Z " fill="#000000" transform="translate(46,177)"/>
<path d="M0 0 C2.64 0 5.28 0 8 0 C8 0.33 8 0.66 8 1 C5.36 1 2.72 1 0 1 C0 0.67 0 0.34 0 0 Z " fill="#000000" transform="translate(166,151)"/>
<path d="M0 0 C2.64 0 5.28 0 8 0 C8 0.33 8 0.66 8 1 C5.36 1 2.72 1 0 1 C0 0.67 0 0.34 0 0 Z " fill="#000000" transform="translate(82,151)"/>
<path d="M0 0 C2.64 0 5.28 0 8 0 C8 0.33 8 0.66 8 1 C5.36 1 2.72 1 0 1 C0 0.67 0 0.34 0 0 Z " fill="#000000" transform="translate(124,141)"/>
<path d="M0 0 C0.33 0 0.66 0 1 0 C1 2.64 1 5.28 1 8 C0.67 8 0.34 8 0 8 C0 5.36 0 2.72 0 0 Z " fill="#000000" transform="translate(76,138)"/>
<path d="M0 0 C2.31 0 4.62 0 7 0 C7 0.33 7 0.66 7 1 C4.69 1 2.38 1 0 1 C0 0.67 0 0.34 0 0 Z " fill="#F26161" transform="translate(87,238)"/>
<path d="M0 0 C2.31 0 4.62 0 7 0 C7 0.33 7 0.66 7 1 C4.69 1 2.38 1 0 1 C0 0.67 0 0.34 0 0 Z " fill="#C84F4F" transform="translate(80,237)"/>
<path d="M0 0 C0.33 0 0.66 0 1 0 C1 2.31 1 4.62 1 7 C0.67 7 0.34 7 0 7 C0 4.69 0 2.38 0 0 Z " fill="#000000" transform="translate(209,175)"/>
<path d="M0 0 C0.33 0 0.66 0 1 0 C1 2.31 1 4.62 1 7 C0.67 7 0.34 7 0 7 C0 4.69 0 2.38 0 0 Z " fill="#D1E3E3" transform="translate(10,172)"/>
<path d="M0 0 C0.33 0 0.66 0 1 0 C1 2.31 1 4.62 1 7 C0.67 7 0.34 7 0 7 C0 4.69 0 2.38 0 0 Z " fill="#E0F2F2" transform="translate(23,171)"/>
<path d="M0 0 C0.33 0 0.66 0 1 0 C1 2.31 1 4.62 1 7 C0.67 7 0.34 7 0 7 C0 4.69 0 2.38 0 0 Z " fill="#000000" transform="translate(133,159)"/>
<path d="M0 0 C0.33 0 0.66 0 1 0 C1 2.31 1 4.62 1 7 C0.67 7 0.34 7 0 7 C0 4.69 0 2.38 0 0 Z " fill="#000000" transform="translate(122,159)"/>
<path d="M0 0 C0.33 0 0.66 0 1 0 C1 2.31 1 4.62 1 7 C0.67 7 0.34 7 0 7 C0 4.69 0 2.38 0 0 Z " fill="#000000" transform="translate(70,157)"/>
<path d="M0 0 C0.33 0 0.66 0 1 0 C1 2.31 1 4.62 1 7 C0.67 7 0.34 7 0 7 C0 4.69 0 2.38 0 0 Z " fill="#000000" transform="translate(92,155)"/>
<path d="M0 0 C0.99 0.99 1.98 1.98 3 3 C1.68 3 0.36 3 -1 3 C-0.67 2.01 -0.34 1.02 0 0 Z " fill="#000000" transform="translate(162,147)"/>
<path d="M0 0 C2.31 0 4.62 0 7 0 C7 0.33 7 0.66 7 1 C4.69 1 2.38 1 0 1 C0 0.67 0 0.34 0 0 Z " fill="#FFFFFF" transform="translate(141,109)"/>
<path d="M0 0 C2.31 0 4.62 0 7 0 C7 0.33 7 0.66 7 1 C4.69 1 2.38 1 0 1 C0 0.67 0 0.34 0 0 Z " fill="#ECECEC" transform="translate(111,109)"/>
<path d="M0 0 C2.31 0 4.62 0 7 0 C7 0.33 7 0.66 7 1 C4.69 1 2.38 1 0 1 C0 0.67 0 0.34 0 0 Z " fill="#242424" transform="translate(164,103)"/>
<path d="M0 0 C2.31 0 4.62 0 7 0 C7 0.33 7 0.66 7 1 C4.69 1 2.38 1 0 1 C0 0.67 0 0.34 0 0 Z " fill="#2D2D2D" transform="translate(85,103)"/>
<path d="M0 0 C0.33 0 0.66 0 1 0 C1 2.31 1 4.62 1 7 C0.67 7 0.34 7 0 7 C0 4.69 0 2.38 0 0 Z " fill="#E0FFFF" transform="translate(27,98)"/>
<path d="M0 0 C0.66 0.33 1.32 0.66 2 1 C0.68 1.99 -0.64 2.98 -2 4 C-1.34 2.68 -0.68 1.36 0 0 Z " fill="#000000" transform="translate(161,43)"/>
<path d="M0 0 C0.33 0 0.66 0 1 0 C1 2.31 1 4.62 1 7 C0.67 7 0.34 7 0 7 C0 4.69 0 2.38 0 0 Z " fill="#DAF5F5" transform="translate(38,30)"/>
<path d="M0 0 C2.31 0 4.62 0 7 0 C7 0.33 7 0.66 7 1 C4.69 1 2.38 1 0 1 C0 0.67 0 0.34 0 0 Z " fill="#B0B0B0" transform="translate(124,9)"/>
<path d="M0 0 C0.33 0 0.66 0 1 0 C1 1.98 1 3.96 1 6 C0.67 6 0.34 6 0 6 C0 4.02 0 2.04 0 0 Z " fill="#000000" transform="translate(48,249)"/>
<path d="M0 0 C0.33 0 0.66 0 1 0 C1 1.98 1 3.96 1 6 C0.67 6 0.34 6 0 6 C0 4.02 0 2.04 0 0 Z " fill="#000000" transform="translate(192,241)"/>
<path d="M0 0 C2.475 0.495 2.475 0.495 5 1 C5 1.33 5 1.66 5 2 C3.35 2 1.7 2 0 2 C0 1.34 0 0.68 0 0 Z " fill="#C33A3A" transform="translate(65,233)"/>
<path d="M0 0 C0.33 0 0.66 0 1 0 C1 1.98 1 3.96 1 6 C0.67 6 0.34 6 0 6 C0 4.02 0 2.04 0 0 Z " fill="#000000" transform="translate(48,232)"/>
<path d="M0 0 C0.33 0 0.66 0 1 0 C1 1.98 1 3.96 1 6 C0.67 6 0.34 6 0 6 C0 4.02 0 2.04 0 0 Z " fill="#D4F4F4" transform="translate(26,227)"/>
<path d="M0 0 C0.33 0 0.66 0 1 0 C1 1.98 1 3.96 1 6 C0.67 6 0.34 6 0 6 C0 4.02 0 2.04 0 0 Z " fill="#B4C9C9" transform="translate(236,211)"/>
<path d="M0 0 C1.98 0 3.96 0 6 0 C6 0.33 6 0.66 6 1 C4.02 1 2.04 1 0 1 C0 0.67 0 0.34 0 0 Z " fill="#F05C5C" transform="translate(170,196)"/>
<path d="M0 0 C1.98 0 3.96 0 6 0 C6 0.33 6 0.66 6 1 C4.02 1 2.04 1 0 1 C0 0.67 0 0.34 0 0 Z " fill="#FF6363" transform="translate(176,195)"/>
<path d="M0 0 C1.98 0 3.96 0 6 0 C6 0.33 6 0.66 6 1 C4.02 1 2.04 1 0 1 C0 0.67 0 0.34 0 0 Z " fill="#FF5C5C" transform="translate(80,195)"/>
<path d="M0 0 C1.98 0 3.96 0 6 0 C6 0.33 6 0.66 6 1 C4.02 1 2.04 1 0 1 C0 0.67 0 0.34 0 0 Z " fill="#000000" transform="translate(136,184)"/>
<path d="M0 0 C0.33 0 0.66 0 1 0 C1 1.98 1 3.96 1 6 C0.67 6 0.34 6 0 6 C0 4.02 0 2.04 0 0 Z " fill="#000000" transform="translate(194,138)"/>
<path d="M0 0 C0.33 0 0.66 0 1 0 C1 1.98 1 3.96 1 6 C0.67 6 0.34 6 0 6 C0 4.02 0 2.04 0 0 Z " fill="#000000" transform="translate(194,127)"/>
<path d="M0 0 C1.98 0 3.96 0 6 0 C6 0.33 6 0.66 6 1 C4.02 1 2.04 1 0 1 C0 0.67 0 0.34 0 0 Z " fill="#D0E6E6" transform="translate(230,127)"/>
<path d="M0 0 C1.98 0 3.96 0 6 0 C6 0.33 6 0.66 6 1 C4.02 1 2.04 1 0 1 C0 0.67 0 0.34 0 0 Z " fill="#CDE6F0" transform="translate(50,72)"/>
<path d="M0 0 C0.33 0 0.66 0 1 0 C1 1.98 1 3.96 1 6 C0.67 6 0.34 6 0 6 C0 4.02 0 2.04 0 0 Z " fill="#000000" transform="translate(166,68)"/>
<path d="M0 0 C0.33 0 0.66 0 1 0 C1 1.98 1 3.96 1 6 C0.67 6 0.34 6 0 6 C0 4.02 0 2.04 0 0 Z " fill="#000000" transform="translate(79,66)"/>
<path d="M0 0 C0.33 0 0.66 0 1 0 C1 1.98 1 3.96 1 6 C0.67 6 0.34 6 0 6 C0 4.02 0 2.04 0 0 Z " fill="#DFE9E9" transform="translate(21,32)"/>
<path d="M0 0 C1.98 0 3.96 0 6 0 C6 0.33 6 0.66 6 1 C4.02 1 2.04 1 0 1 C0 0.67 0 0.34 0 0 Z " fill="#D4F4FF" transform="translate(207,27)"/>
<path d="M0 0 C0.33 0 0.66 0 1 0 C1 1.65 1 3.3 1 5 C0.67 5 0.34 5 0 5 C0 3.35 0 1.7 0 0 Z " fill="#000000" transform="translate(207,251)"/>
<path d="M0 0 C0.33 0 0.66 0 1 0 C1 1.65 1 3.3 1 5 C0.67 5 0.34 5 0 5 C0 3.35 0 1.7 0 0 Z " fill="#000000" transform="translate(191,247)"/>
<path d="M0 0 C1.65 0 3.3 0 5 0 C5 0.33 5 0.66 5 1 C3.35 1 1.7 1 0 1 C0 0.67 0 0.34 0 0 Z " fill="#FF5D5D" transform="translate(75,236)"/>
<path d="M0 0 C1.65 0 3.3 0 5 0 C5 0.33 5 0.66 5 1 C3.35 1 1.7 1 0 1 C0 0.67 0 0.34 0 0 Z " fill="#AEAEAE" transform="translate(30,236)"/>
<path d="M0 0 C1.65 0 3.3 0 5 0 C5 0.33 5 0.66 5 1 C3.35 1 1.7 1 0 1 C0 0.67 0 0.34 0 0 Z " fill="#FF6666" transform="translate(70,235)"/>
<path d="M0 0 C0.33 0 0.66 0 1 0 C1 1.65 1 3.3 1 5 C0.67 5 0.34 5 0 5 C0 3.35 0 1.7 0 0 Z " fill="#000000" transform="translate(207,231)"/>
<path d="M0 0 C0.66 0 1.32 0 2 0 C1.67 1.32 1.34 2.64 1 4 C0.67 2.68 0.34 1.36 0 0 Z " fill="#660C0C" transform="translate(48,228)"/>
<path d="M0 0 C0.33 0 0.66 0 1 0 C1 1.65 1 3.3 1 5 C0.67 5 0.34 5 0 5 C0 3.35 0 1.7 0 0 Z " fill="#C3DDDD" transform="translate(39,227)"/>
<path d="M0 0 C0.33 0 0.66 0 1 0 C1 1.65 1 3.3 1 5 C0.67 5 0.34 5 0 5 C0 3.35 0 1.7 0 0 Z " fill="#FF5555" transform="translate(213,212)"/>
<path d="M0 0 C0.33 0 0.66 0 1 0 C1 1.65 1 3.3 1 5 C0.67 5 0.34 5 0 5 C0 3.35 0 1.7 0 0 Z " fill="#FF5555" transform="translate(42,212)"/>
<path d="M0 0 C1.65 0 3.3 0 5 0 C5 0.33 5 0.66 5 1 C3.35 1 1.7 1 0 1 C0 0.67 0 0.34 0 0 Z " fill="#CBE5E5" transform="translate(241,207)"/>
<path d="M0 0 C1.65 0 3.3 0 5 0 C5 0.33 5 0.66 5 1 C3.35 1 1.7 1 0 1 C0 0.67 0 0.34 0 0 Z " fill="#FF6666" transform="translate(182,194)"/>
<path d="M0 0 C1.65 0 3.3 0 5 0 C5 0.33 5 0.66 5 1 C3.35 1 1.7 1 0 1 C0 0.67 0 0.34 0 0 Z " fill="#FF8888" transform="translate(74,194)"/>
<path d="M0 0 C1.65 0 3.3 0 5 0 C5 0.33 5 0.66 5 1 C3.35 1 1.7 1 0 1 C0 0.67 0 0.34 0 0 Z " fill="#FF5555" transform="translate(69,193)"/>
<path d="M0 0 C1.65 0 3.3 0 5 0 C5 0.33 5 0.66 5 1 C3.35 1 1.7 1 0 1 C0 0.67 0 0.34 0 0 Z " fill="#FF5D5D" transform="translate(64,192)"/>
<path d="M0 0 C1.65 0 3.3 0 5 0 C5 0.33 5 0.66 5 1 C3.35 1 1.7 1 0 1 C0 0.67 0 0.34 0 0 Z " fill="#000000" transform="translate(115,184)"/>
<path d="M0 0 C1.65 0 3.3 0 5 0 C5 0.33 5 0.66 5 1 C3.35 1 1.7 1 0 1 C0 0.67 0 0.34 0 0 Z " fill="#D8FFFF" transform="translate(14,182)"/>
<path d="M0 0 C0.33 0 0.66 0 1 0 C1 1.65 1 3.3 1 5 C0.67 5 0.34 5 0 5 C0 3.35 0 1.7 0 0 Z " fill="#000000" transform="translate(63,175)"/>
<path d="M0 0 C0.33 0 0.66 0 1 0 C1 1.65 1 3.3 1 5 C0.67 5 0.34 5 0 5 C0 3.35 0 1.7 0 0 Z " fill="#000000" transform="translate(192,174)"/>
<path d="M0 0 C1.65 0 3.3 0 5 0 C5 0.33 5 0.66 5 1 C3.35 1 1.7 1 0 1 C0 0.67 0 0.34 0 0 Z " fill="#CCD8F2" transform="translate(221,169)"/>
<path d="M0 0 C0.33 0 0.66 0 1 0 C1 1.65 1 3.3 1 5 C0.67 5 0.34 5 0 5 C0 3.35 0 1.7 0 0 Z " fill="#000000" transform="translate(150,159)"/>
<path d="M0 0 C0.33 0 0.66 0 1 0 C1 1.65 1 3.3 1 5 C0.67 5 0.34 5 0 5 C0 3.35 0 1.7 0 0 Z " fill="#000000" transform="translate(185,158)"/>
<path d="M0 0 C1.65 0 3.3 0 5 0 C5 0.33 5 0.66 5 1 C3.35 1 1.7 1 0 1 C0 0.67 0 0.34 0 0 Z " fill="#000000" transform="translate(119,142)"/>
<path d="M0 0 C0.33 0 0.66 0 1 0 C1 1.65 1 3.3 1 5 C0.67 5 0.34 5 0 5 C0 3.35 0 1.7 0 0 Z " fill="#000000" transform="translate(45,141)"/>
<path d="M0 0 C1.65 0 3.3 0 5 0 C5 0.33 5 0.66 5 1 C3.35 1 1.7 1 0 1 C0 0.67 0 0.34 0 0 Z " fill="#A5BFBF" transform="translate(31,137)"/>
<path d="M0 0 C0.33 0 0.66 0 1 0 C1 1.65 1 3.3 1 5 C0.67 5 0.34 5 0 5 C0 3.35 0 1.7 0 0 Z " fill="#000000" transform="translate(195,133)"/>
<path d="M0 0 C1.65 0 3.3 0 5 0 C5 0.33 5 0.66 5 1 C3.35 1 1.7 1 0 1 C0 0.67 0 0.34 0 0 Z " fill="#000000" transform="translate(167,130)"/>
<path d="M0 0 C0.33 0 0.66 0 1 0 C1 1.65 1 3.3 1 5 C0.67 5 0.34 5 0 5 C0 3.35 0 1.7 0 0 Z " fill="#000000" transform="translate(45,125)"/>
<path d="M0 0 C0.33 0 0.66 0 1 0 C1 1.65 1 3.3 1 5 C0.67 5 0.34 5 0 5 C0 3.35 0 1.7 0 0 Z " fill="#C3C3C3" transform="translate(242,116)"/>
<path d="M0 0 C1.65 0 3.3 0 5 0 C5 0.33 5 0.66 5 1 C3.35 1 1.7 1 0 1 C0 0.67 0 0.34 0 0 Z " fill="#90909D" transform="translate(232,110)"/>
<path d="M0 0 C1.65 0 3.3 0 5 0 C5 0.33 5 0.66 5 1 C3.35 1 1.7 1 0 1 C0 0.67 0 0.34 0 0 Z " fill="#F2F2F2" transform="translate(106,108)"/>
<path d="M0 0 C0.33 0 0.66 0 1 0 C1 1.65 1 3.3 1 5 C0.67 5 0.34 5 0 5 C0 3.35 0 1.7 0 0 Z " fill="#000000" transform="translate(63,92)"/>
<path d="M0 0 C1.65 0 3.3 0 5 0 C5 0.33 5 0.66 5 1 C3.35 1 1.7 1 0 1 C0 0.67 0 0.34 0 0 Z " fill="#C7D4D4" transform="translate(221,73)"/>
<path d="M0 0 C0.33 0 0.66 0 1 0 C1 1.65 1 3.3 1 5 C0.67 5 0.34 5 0 5 C0 3.35 0 1.7 0 0 Z " fill="#000000" transform="translate(89,67)"/>
<path d="M0 0 C0.33 0 0.66 0 1 0 C1 1.65 1 3.3 1 5 C0.67 5 0.34 5 0 5 C0 3.35 0 1.7 0 0 Z " fill="#D4E1F2" transform="translate(58,65)"/>
<path d="M0 0 C0.33 0 0.66 0 1 0 C1 1.65 1 3.3 1 5 C0.67 5 0.34 5 0 5 C0 3.35 0 1.7 0 0 Z " fill="#000000" transform="translate(176,65)"/>
<path d="M0 0 C0.33 0 0.66 0 1 0 C1 1.65 1 3.3 1 5 C0.67 5 0.34 5 0 5 C0 3.35 0 1.7 0 0 Z " fill="#E1E1FF" transform="translate(47,65)"/>
<path d="M0 0 C0.33 0 0.66 0 1 0 C1 1.65 1 3.3 1 5 C0.67 5 0.34 5 0 5 C0 3.35 0 1.7 0 0 Z " fill="#000000" transform="translate(63,63)"/>
<path d="M0 0 C0.33 0 0.66 0 1 0 C1 1.65 1 3.3 1 5 C0.67 5 0.34 5 0 5 C0 3.35 0 1.7 0 0 Z " fill="#000000" transform="translate(192,62)"/>
<path d="M0 0 C0.33 0 0.66 0 1 0 C1 1.65 1 3.3 1 5 C0.67 5 0.34 5 0 5 C0 3.35 0 1.7 0 0 Z " fill="#D8F2F2" transform="translate(206,53)"/>
<path d="M0 0 C0.66 0.33 1.32 0.66 2 1 C1.01 1.66 0.02 2.32 -1 3 C-0.67 2.01 -0.34 1.02 0 0 Z " fill="#000000" transform="translate(73,43)"/>
<path d="M0 0 C0.33 0 0.66 0 1 0 C1 1.65 1 3.3 1 5 C0.67 5 0.34 5 0 5 C0 3.35 0 1.7 0 0 Z " fill="#C7EEEE" transform="translate(216,19)"/>
<path d="M0 0 C1.65 0 3.3 0 5 0 C5 0.33 5 0.66 5 1 C3.35 1 1.7 1 0 1 C0 0.67 0 0.34 0 0 Z " fill="#C7F2F2" transform="translate(170,11)"/>
<path d="M0 0 C4 1 4 1 4 1 Z " fill="#AACFCF" transform="translate(31,222)"/>
<path d="M0 0 C1 4 1 4 1 4 Z " fill="#FF3535" transform="translate(212,217)"/>
<path d="M0 0 C1 4 1 4 1 4 Z " fill="#FF3535" transform="translate(43,217)"/>
<path d="M0 0 C1 4 1 4 1 4 Z " fill="#FF8080" transform="translate(213,198)"/>
<path d="M0 0 C1 4 1 4 1 4 Z " fill="#FF8080" transform="translate(42,198)"/>
<path d="M0 0 C4 1 4 1 4 1 Z " fill="#FF4A4A" transform="translate(187,193)"/>
<path d="M0 0 C4 1 4 1 4 1 Z " fill="#C9E9E9" transform="translate(221,182)"/>
<path d="M0 0 C1 4 1 4 1 4 Z " fill="#C4D9D9" transform="translate(229,174)"/>
<path d="M0 0 C1 4 1 4 1 4 Z " fill="#000000" transform="translate(47,172)"/>
<path d="M0 0 C1 4 1 4 1 4 Z " fill="#000000" transform="translate(208,171)"/>
<path d="M0 0 C4 1 4 1 4 1 Z " fill="#000000" transform="translate(138,171)"/>
<path d="M0 0 C4 1 4 1 4 1 Z " fill="#000000" transform="translate(126,168)"/>
<path d="M0 0 C4 1 4 1 4 1 Z " fill="#94D4D4" transform="translate(15,166)"/>
<path d="M0 0 C1 4 1 4 1 4 Z " fill="#000000" transform="translate(93,162)"/>
<path d="M0 0 C1 4 1 4 1 4 Z " fill="#000000" transform="translate(150,154)"/>
<path d="M0 0 C1 4 1 4 1 4 Z " fill="#000000" transform="translate(137,152)"/>
<path d="M0 0 C1 4 1 4 1 4 Z " fill="#000000" transform="translate(118,152)"/>
<path d="M0 0 C0.99 0.495 0.99 0.495 2 1 C1.67 1.66 1.34 2.32 1 3 C0.67 2.01 0.34 1.02 0 0 Z " fill="#000000" transform="translate(66,152)"/>
<path d="M0 0 C1 4 1 4 1 4 Z " fill="#000000" transform="translate(93,151)"/>
<path d="M0 0 C4 1 4 1 4 1 Z " fill="#000000" transform="translate(126,149)"/>
<path d="M0 0 C4 1 4 1 4 1 Z " fill="#000000" transform="translate(130,148)"/>
<path d="M0 0 C4 1 4 1 4 1 Z " fill="#000000" transform="translate(122,148)"/>
<path d="M0 0 C4 1 4 1 4 1 Z " fill="#DFFFFF" transform="translate(32,148)"/>
<path d="M0 0 C0.99 0.495 0.99 0.495 2 1 C1.67 1.66 1.34 2.32 1 3 C0.67 2.01 0.34 1.02 0 0 Z " fill="#000000" transform="translate(94,146)"/>
<path d="M0 0 C1 4 1 4 1 4 Z " fill="#000000" transform="translate(46,146)"/>
<path d="M0 0 C0 3 0 3 0 3 Z " fill="#000000" transform="translate(178,146)"/>
<path d="M0 0 C1 4 1 4 1 4 Z " fill="#000000" transform="translate(210,143)"/>
<path d="M0 0 C4 1 4 1 4 1 Z " fill="#000000" transform="translate(133,142)"/>
<path d="M0 0 C1 4 1 4 1 4 Z " fill="#C9C9D9" transform="translate(28,141)"/>
<path d="M0 0 C0.66 0.33 1.32 0.66 2 1 C1.01 1 0.02 1 -1 1 C-0.67 0.67 -0.34 0.34 0 0 Z " fill="#000000" transform="translate(103,137)"/>
<path d="M0 0 C0.99 0.33 1.98 0.66 3 1 C2.01 1 1.02 1 0 1 C0 0.67 0 0.34 0 0 Z " fill="#000000" transform="translate(150,136)"/>
<path d="M0 0 C4 1 4 1 4 1 Z " fill="#000000" transform="translate(116,130)"/>
<path d="M0 0 C4 1 4 1 4 1 Z " fill="#000000" transform="translate(85,130)"/>
<path d="M0 0 C1 4 1 4 1 4 Z " fill="#000000" transform="translate(210,124)"/>
<path d="M0 0 C1 4 1 4 1 4 Z " fill="#000000" transform="translate(62,124)"/>
<path d="M0 0 C1 4 1 4 1 4 Z " fill="#000000" transform="translate(46,121)"/>
<path d="M0 0 C1 4 1 4 1 4 Z " fill="#000000" transform="translate(209,120)"/>
<path d="M0 0 C4 1 4 1 4 1 Z " fill="#DFFFFF" transform="translate(18,109)"/>
<path d="M0 0 C4 1 4 1 4 1 Z " fill="#EFEFEF" transform="translate(148,108)"/>
<path d="M0 0 C4 1 4 1 4 1 Z " fill="#FFFFFF" transform="translate(152,107)"/>
<path d="M0 0 C4 1 4 1 4 1 Z " fill="#E9E9E9" transform="translate(101,107)"/>
<path d="M0 0 C0 3 0 3 0 3 Z " fill="#000000" transform="translate(53,107)"/>
<path d="M0 0 C4 1 4 1 4 1 Z " fill="#BFBFBF" transform="translate(97,106)"/>
<path d="M0 0 C4 1 4 1 4 1 Z " fill="#000000" transform="translate(171,104)"/>
<path d="M0 0 C4 1 4 1 4 1 Z " fill="#000000" transform="translate(81,104)"/>
<path d="M0 0 C1 4 1 4 1 4 Z " fill="#DFDFDF" transform="translate(51,90)"/>
<path d="M0 0 C4 1 4 1 4 1 Z " fill="#BFFFFF" transform="translate(45,87)"/>
<path d="M0 0 C1 4 1 4 1 4 Z " fill="#EFEFEF" transform="translate(230,78)"/>
<path d="M0 0 C1 4 1 4 1 4 Z " fill="#BFDFDF" transform="translate(216,78)"/>
<path d="M0 0 C1 4 1 4 1 4 Z " fill="#FFFFFF" transform="translate(167,78)"/>
<path d="M0 0 C1 4 1 4 1 4 Z " fill="#FFFFFF" transform="translate(88,78)"/>
<path d="M0 0 C1 4 1 4 1 4 Z " fill="#000000" transform="translate(167,64)"/>
<path d="M0 0 C1 4 1 4 1 4 Z " fill="#000000" transform="translate(88,63)"/>
<path d="M0 0 C1 4 1 4 1 4 Z " fill="#000000" transform="translate(80,62)"/>
<path d="M0 0 C4 1 4 1 4 1 Z " fill="#E9FFFF" transform="translate(51,61)"/>
<path d="M0 0 C1 4 1 4 1 4 Z " fill="#000000" transform="translate(64,59)"/>
<path d="M0 0 C1 4 1 4 1 4 Z " fill="#000000" transform="translate(191,58)"/>
<path d="M0 0 C0.99 0.495 0.99 0.495 2 1 C1.67 1.66 1.34 2.32 1 3 C0.67 2.01 0.34 1.02 0 0 Z " fill="#BF0000" transform="translate(154,50)"/>
<path d="M0 0 C0 3 0 3 0 3 Z " fill="#BF0000" transform="translate(101,50)"/>
<path d="M0 0 C0.99 0.495 0.99 0.495 2 1 C1.67 1.66 1.34 2.32 1 3 C0.67 2.01 0.34 1.02 0 0 Z " fill="#000000" transform="translate(184,45)"/>
<path d="M0 0 C0.99 0.495 0.99 0.495 2 1 C1.67 1.66 1.34 2.32 1 3 C0.67 2.01 0.34 1.02 0 0 Z " fill="#6F0000" transform="translate(145,36)"/>
<path d="M0 0 C0 3 0 3 0 3 Z " fill="#6F0000" transform="translate(110,36)"/>
<path d="M0 0 C1 4 1 4 1 4 Z " fill="#EFFFFF" transform="translate(249,30)"/>
<path d="M0 0 C1 4 1 4 1 4 Z " fill="#B4E9E9" transform="translate(203,19)"/>
<path d="M0 0 C1 4 1 4 1 4 Z " fill="#FFFFFF" transform="translate(110,21)"/>
<path d="M0 0 C4 1 4 1 4 1 Z " fill="#D9EFFF" transform="translate(84,21)"/>
<path d="M0 0 C1 4 1 4 1 4 Z " fill="#D4D4D4" transform="translate(178,15)"/>
<path d="M0 0 C0 3 0 3 0 3 Z " fill="#EFEFEF" transform="translate(114,15)"/>
<path d="M0 0 C0.66 0.33 1.32 0.66 2 1 C1.01 1 0.02 1 -1 1 C-0.67 0.67 -0.34 0.34 0 0 Z " fill="#EFEFEF" transform="translate(116,13)"/>
<path d="" fill="#000000" transform="translate(0,0)"/>
<path d="M0 0 C0.33 0.66 0.66 1.32 1 2 C0.34 1.67 -0.32 1.34 -1 1 C-0.67 0.67 -0.34 0.34 0 0 Z " fill="#FF1C1C" transform="translate(208,226)"/>
<path d="M0 0 C3 1 3 1 3 1 Z " fill="#E9FFFF" transform="translate(243,219)"/>
<path d="" fill="#CDCDCD" transform="translate(0,0)"/>
<path d="" fill="#FF5555" transform="translate(0,0)"/>
<path d="" fill="#FF5555" transform="translate(0,0)"/>
<path d="M0 0 C3 1 3 1 3 1 Z " fill="#000000" transform="translate(142,183)"/>
<path d="" fill="#000000" transform="translate(0,0)"/>
<path d="" fill="#000000" transform="translate(0,0)"/>
<path d="M0 0 C3 1 3 1 3 1 Z " fill="#000000" transform="translate(115,171)"/>
<path d="M0 0 C3 1 3 1 3 1 Z " fill="#000000" transform="translate(112,170)"/>
<path d="" fill="#000000" transform="translate(0,0)"/>
<path d="" fill="#000000" transform="translate(0,0)"/>
<path d="" fill="#000000" transform="translate(0,0)"/>
<path d="" fill="#000000" transform="translate(0,0)"/>
<path d="" fill="#000000" transform="translate(0,0)"/>
<path d="" fill="#000000" transform="translate(0,0)"/>
<path d="" fill="#000000" transform="translate(0,0)"/>
<path d="" fill="#000000" transform="translate(0,0)"/>
<path d="" fill="#000000" transform="translate(0,0)"/>
<path d="" fill="#000000" transform="translate(0,0)"/>
<path d="M0 0 C0.66 0 1.32 0 2 0 C1.67 0.66 1.34 1.32 1 2 C0.67 1.34 0.34 0.68 0 0 Z " fill="#000000" transform="translate(95,145)"/>
<path d="" fill="#000000" transform="translate(0,0)"/>
<path d="M0 0 C0.33 0.66 0.66 1.32 1 2 C0.34 1.67 -0.32 1.34 -1 1 C-0.67 0.67 -0.34 0.34 0 0 Z " fill="#000000" transform="translate(160,144)"/>
<path d="" fill="#000000" transform="translate(0,0)"/>
<path d="M0 0 C3 1 3 1 3 1 Z " fill="#000000" transform="translate(137,143)"/>
<path d="M0 0 C3 1 3 1 3 1 Z " fill="#000000" transform="translate(116,143)"/>
<path d="" fill="#000000" transform="translate(0,0)"/>
<path d="" fill="#000000" transform="translate(0,0)"/>
<path d="" fill="#000000" transform="translate(0,0)"/>
<path d="M0 0 C3 1 3 1 3 1 Z " fill="#000000" transform="translate(140,131)"/>
<path d="M0 0 C3 1 3 1 3 1 Z " fill="#000000" transform="translate(113,131)"/>
<path d="M0 0 C3 1 3 1 3 1 Z " fill="#000000" transform="translate(82,131)"/>
<path d="M0 0 C3 1 3 1 3 1 Z " fill="#000000" transform="translate(137,130)"/>
<path d="" fill="#000000" transform="translate(0,0)"/>
<path d="" fill="#000000" transform="translate(0,0)"/>
<path d="" fill="#D4D4FF" transform="translate(0,0)"/>
<path d="" fill="#000000" transform="translate(0,0)"/>
<path d="" fill="#BFD4D4" transform="translate(0,0)"/>
<path d="M0 0 C0.66 0.66 1.32 1.32 2 2 C1.34 2 0.68 2 0 2 C0 1.34 0 0.68 0 0 Z " fill="#FFFFFF" transform="translate(15,106)"/>
<path d="M0 0 C3 1 3 1 3 1 Z " fill="#E9E9E9" transform="translate(156,106)"/>
<path d="M0 0 C3 1 3 1 3 1 Z " fill="#000000" transform="translate(175,105)"/>
<path d="M0 0 C3 1 3 1 3 1 Z " fill="#FFFFFF" transform="translate(94,105)"/>
<path d="M0 0 C3 1 3 1 3 1 Z " fill="#AAAAAA" transform="translate(161,104)"/>
<path d="" fill="#CDE2E2" transform="translate(0,0)"/>
<path d="" fill="#D4D4D4" transform="translate(0,0)"/>
<path d="" fill="#000000" transform="translate(0,0)"/>
<path d="" fill="#E2E2FF" transform="translate(0,0)"/>
<path d="M0 0 C3 1 3 1 3 1 Z " fill="#000000" transform="translate(79,88)"/>
<path d="M0 0 C3 1 3 1 3 1 Z " fill="#D4D4FF" transform="translate(222,87)"/>
<path d="" fill="#E9E9E9" transform="translate(0,0)"/>
<path d="" fill="#E9E9E9" transform="translate(0,0)"/>
<path d="" fill="#6A6A6A" transform="translate(0,0)"/>
<path d="" fill="#000000" transform="translate(0,0)"/>
<path d="" fill="#000000" transform="translate(0,0)"/>
<path d="M0 0 C3 1 3 1 3 1 Z " fill="#636363" transform="translate(201,60)"/>
<path d="" fill="#000000" transform="translate(0,0)"/>
<path d="" fill="#000000" transform="translate(0,0)"/>
<path d="" fill="#000000" transform="translate(0,0)"/>
<path d="" fill="#BFFFFF" transform="translate(0,0)"/>
<path d="M0 0 C0.33 0.66 0.66 1.32 1 2 C0.34 1.67 -0.32 1.34 -1 1 C-0.67 0.67 -0.34 0.34 0 0 Z " fill="#000000" transform="translate(172,55)"/>
<path d="M0 0 C0.33 0.66 0.66 1.32 1 2 C0.34 1.67 -0.32 1.34 -1 1 C-0.67 0.67 -0.34 0.34 0 0 Z " fill="#000000" transform="translate(84,55)"/>
<path d="M0 0 C3 1 3 1 3 1 Z " fill="#000000" transform="translate(165,40)"/>
<path d="M0 0 C3 1 3 1 3 1 Z " fill="#CDE9FF" transform="translate(243,37)"/>
<path d="" fill="#E2E2E2" transform="translate(0,0)"/>
<path d="" fill="#AAAAAA" transform="translate(0,0)"/>
<path d="M0 0 C3 1 3 1 3 1 Z " fill="#BFD4D4" transform="translate(31,25)"/>
<path d="M0 0 C3 1 3 1 3 1 Z " fill="#BFD4D4" transform="translate(27,25)"/>
<path d="M0 0 C3 1 3 1 3 1 Z " fill="#C6E2E2" transform="translate(171,23)"/>
<path d="" fill="#B8E2E2" transform="translate(0,0)"/>
<path d="" fill="#E2E2FF" transform="translate(0,0)"/>
<path d="M0 0 C3 1 3 1 3 1 Z " fill="#FFFFFF" transform="translate(131,10)"/>
<path d="M0 0 C3 1 3 1 3 1 Z " fill="#D4D4D4" transform="translate(121,10)"/>
<path d="M0 0 C3 1 3 1 3 1 Z " fill="#CDCDE2" transform="translate(85,10)"/>
<path d="" fill="#000000" transform="translate(0,0)"/>
<path d="" fill="#000000" transform="translate(0,0)"/>
<path d="M0 0 C2 1 2 1 2 1 Z " fill="#404040" transform="translate(36,234)"/>
<path d="" fill="#601515" transform="translate(0,0)"/>
<path d="" fill="#FF4040" transform="translate(0,0)"/>
<path d="" fill="#BFBFBF" transform="translate(0,0)"/>
<path d="" fill="#FFFFFF" transform="translate(0,0)"/>
<path d="" fill="#FFBFBF" transform="translate(0,0)"/>
<path d="" fill="#FFBFBF" transform="translate(0,0)"/>
<path d="M0 0 C2 1 2 1 2 1 Z " fill="#FFFFFF" transform="translate(28,224)"/>
<path d="M0 0 C2 1 2 1 2 1 Z " fill="#BFBFBF" transform="translate(35,223)"/>
<path d="" fill="#FF8080" transform="translate(0,0)"/>
<path d="" fill="#FF8080" transform="translate(0,0)"/>
<path d="M0 0 C2 1 2 1 2 1 Z " fill="#FFFFFF" transform="translate(241,220)"/>
<path d="M0 0 C2 1 2 1 2 1 Z " fill="#D4D4FF" transform="translate(239,219)"/>
<path d="" fill="#D4D4D4" transform="translate(0,0)"/>
<path d="" fill="#FFFFFF" transform="translate(0,0)"/>
<path d="M0 0 C2 1 2 1 2 1 Z " fill="#7FFFFF" transform="translate(239,208)"/>
<path d="" fill="#DF6060" transform="translate(0,0)"/>
<path d="" fill="#DF6060" transform="translate(0,0)"/>
<path d="M0 0 C2 1 2 1 2 1 Z " fill="#000000" transform="translate(112,183)"/>
<path d="M0 0 C2 1 2 1 2 1 Z " fill="#000000" transform="translate(145,182)"/>
<path d="M0 0 C2 1 2 1 2 1 Z " fill="#000000" transform="translate(109,182)"/>
<path d="M0 0 C2 1 2 1 2 1 Z " fill="#7FFFFF" transform="translate(225,181)"/>
<path d="M0 0 C2 1 2 1 2 1 Z " fill="#FFFFFF" transform="translate(219,181)"/>
<path d="M0 0 C2 1 2 1 2 1 Z " fill="#000000" transform="translate(147,181)"/>
<path d="M0 0 C2 1 2 1 2 1 Z " fill="#000000" transform="translate(107,181)"/>
<path d="M0 0 C2 1 2 1 2 1 Z " fill="#FFFFFF" transform="translate(19,181)"/>
<path d="" fill="#FFFFFF" transform="translate(0,0)"/>
<path d="M0 0 C2 1 2 1 2 1 Z " fill="#000000" transform="translate(149,180)"/>
<path d="M0 0 C2 1 2 1 2 1 Z " fill="#000000" transform="translate(104,179)"/>
<path d="" fill="#FFFFFF" transform="translate(0,0)"/>
<path d="" fill="#DFDFDF" transform="translate(0,0)"/>
<path d="M0 0 C2 1 2 1 2 1 Z " fill="#000000" transform="translate(153,177)"/>
<path d="" fill="#DFDFFF" transform="translate(0,0)"/>
<path d="" fill="#000000" transform="translate(0,0)"/>
<path d="" fill="#7FFFFF" transform="translate(0,0)"/>
<path d="" fill="#000000" transform="translate(0,0)"/>
<path d="" fill="#000000" transform="translate(0,0)"/>
<path d="" fill="#D4FFFF" transform="translate(0,0)"/>
<path d="M0 0 C2 1 2 1 2 1 Z " fill="#DFDFDF" transform="translate(219,170)"/>
<path d="" fill="#000000" transform="translate(0,0)"/>
<path d="" fill="#000000" transform="translate(0,0)"/>
<path d="M0 0 C2 1 2 1 2 1 Z " fill="#000000" transform="translate(142,170)"/>
<path d="M0 0 C2 1 2 1 2 1 Z " fill="#000000" transform="translate(144,169)"/>
<path d="" fill="#000000" transform="translate(0,0)"/>
<path d="" fill="#000000" transform="translate(0,0)"/>
<path d="" fill="#000000" transform="translate(0,0)"/>
<path d="" fill="#000000" transform="translate(0,0)"/>
<path d="M0 0 C2 1 2 1 2 1 Z " fill="#000000" transform="translate(109,168)"/>
<path d="M0 0 C2 1 2 1 2 1 Z " fill="#000000" transform="translate(130,167)"/>
<path d="M0 0 C2 1 2 1 2 1 Z " fill="#000000" transform="translate(124,167)"/>
<path d="" fill="#000000" transform="translate(0,0)"/>
<path d="" fill="#000000" transform="translate(0,0)"/>
<path d="" fill="#000000" transform="translate(0,0)"/>
<path d="" fill="#000000" transform="translate(0,0)"/>
<path d="" fill="#000000" transform="translate(0,0)"/>
<path d="" fill="#000000" transform="translate(0,0)"/>
<path d="" fill="#000000" transform="translate(0,0)"/>
<path d="" fill="#000000" transform="translate(0,0)"/>
<path d="" fill="#000000" transform="translate(0,0)"/>
<path d="" fill="#000000" transform="translate(0,0)"/>
<path d="" fill="#000000" transform="translate(0,0)"/>
<path d="" fill="#000000" transform="translate(0,0)"/>
<path d="" fill="#000000" transform="translate(0,0)"/>
<path d="" fill="#000000" transform="translate(0,0)"/>
<path d="" fill="#000000" transform="translate(0,0)"/>
<path d="" fill="#000000" transform="translate(0,0)"/>
<path d="" fill="#000000" transform="translate(0,0)"/>
<path d="" fill="#000000" transform="translate(0,0)"/>
<path d="" fill="#000000" transform="translate(0,0)"/>
<path d="" fill="#000000" transform="translate(0,0)"/>
<path d="" fill="#000000" transform="translate(0,0)"/>
<path d="" fill="#000000" transform="translate(0,0)"/>
<path d="" fill="#000000" transform="translate(0,0)"/>
<path d="" fill="#000000" transform="translate(0,0)"/>
<path d="" fill="#000000" transform="translate(0,0)"/>
<path d="" fill="#000000" transform="translate(0,0)"/>
<path d="M0 0 C2 1 2 1 2 1 Z " fill="#000000" transform="translate(90,150)"/>
<path d="" fill="#000000" transform="translate(0,0)"/>
<path d="M0 0 C2 1 2 1 2 1 Z " fill="#000000" transform="translate(175,149)"/>
<path d="" fill="#000000" transform="translate(0,0)"/>
<path d="M0 0 C2 1 2 1 2 1 Z " fill="#000000" transform="translate(111,146)"/>
<path d="M0 0 C2 1 2 1 2 1 Z " fill="#000000" transform="translate(142,145)"/>
<path d="" fill="#AAAAAA" transform="translate(0,0)"/>
<path d="M0 0 C2 1 2 1 2 1 Z " fill="#000000" transform="translate(140,144)"/>
<path d="M0 0 C2 1 2 1 2 1 Z " fill="#000000" transform="translate(114,144)"/>
<path d="" fill="#FFFFFF" transform="translate(0,0)"/>
<path d="" fill="#000000" transform="translate(0,0)"/>
<path d="" fill="#DFDFDF" transform="translate(0,0)"/>
<path d="" fill="#BFFFFF" transform="translate(0,0)"/>
<path d="" fill="#000000" transform="translate(0,0)"/>
<path d="" fill="#000000" transform="translate(0,0)"/>
<path d="" fill="#000000" transform="translate(0,0)"/>
<path d="" fill="#000000" transform="translate(0,0)"/>
<path d="M0 0 C2 1 2 1 2 1 Z " fill="#000000" transform="translate(106,135)"/>
<path d="M0 0 C2 1 2 1 2 1 Z " fill="#000000" transform="translate(147,134)"/>
<path d="M0 0 C2 1 2 1 2 1 Z " fill="#000000" transform="translate(145,133)"/>
<path d="M0 0 C2 1 2 1 2 1 Z " fill="#000000" transform="translate(109,133)"/>
<path d="M0 0 C2 1 2 1 2 1 Z " fill="#000000" transform="translate(163,132)"/>
<path d="M0 0 C2 1 2 1 2 1 Z " fill="#000000" transform="translate(143,132)"/>
<path d="M0 0 C2 1 2 1 2 1 Z " fill="#000000" transform="translate(111,132)"/>
<path d="M0 0 C2 1 2 1 2 1 Z " fill="#000000" transform="translate(172,131)"/>
<path d="M0 0 C2 1 2 1 2 1 Z " fill="#000000" transform="translate(165,131)"/>
<path d="M0 0 C2 1 2 1 2 1 Z " fill="#000000" transform="translate(90,131)"/>
<path d="M0 0 C2 1 2 1 2 1 Z " fill="#D4D4D4" transform="translate(236,126)"/>
<path d="M0 0 C2 1 2 1 2 1 Z " fill="#BFBFBF" transform="translate(228,126)"/>
<path d="" fill="#7F7F7F" transform="translate(0,0)"/>
<path d="" fill="#DFDFFF" transform="translate(0,0)"/>
<path d="" fill="#000000" transform="translate(0,0)"/>
<path d="" fill="#AAAAAA" transform="translate(0,0)"/>
<path d="" fill="#000000" transform="translate(0,0)"/>
<path d="" fill="#000000" transform="translate(0,0)"/>
<path d="" fill="#000000" transform="translate(0,0)"/>
<path d="" fill="#000000" transform="translate(0,0)"/>
<path d="" fill="#000000" transform="translate(0,0)"/>
<path d="" fill="#000000" transform="translate(0,0)"/>
<path d="" fill="#000000" transform="translate(0,0)"/>
<path d="" fill="#000000" transform="translate(0,0)"/>
<path d="" fill="#DFFFFF" transform="translate(0,0)"/>
<path d="" fill="#000000" transform="translate(0,0)"/>
<path d="" fill="#000000" transform="translate(0,0)"/>
<path d="" fill="#000000" transform="translate(0,0)"/>
<path d="" fill="#000000" transform="translate(0,0)"/>
<path d="" fill="#000000" transform="translate(0,0)"/>
<path d="" fill="#000000" transform="translate(0,0)"/>
<path d="M0 0 C2 1 2 1 2 1 Z " fill="#FFFFFF" transform="translate(237,111)"/>
<path d="" fill="#000000" transform="translate(0,0)"/>
<path d="" fill="#000000" transform="translate(0,0)"/>
<path d="M0 0 C2 1 2 1 2 1 Z " fill="#000000" transform="translate(72,109)"/>
<path d="M0 0 C2 1 2 1 2 1 Z " fill="#000000" transform="translate(181,108)"/>
<path d="M0 0 C2 1 2 1 2 1 Z " fill="#D4D4FF" transform="translate(22,108)"/>
<path d="M0 0 C2 1 2 1 2 1 Z " fill="#000000" transform="translate(75,107)"/>
<path d="" fill="#000000" transform="translate(0,0)"/>
<path d="M0 0 C2 1 2 1 2 1 Z " fill="#000000" transform="translate(178,106)"/>
<path d="M0 0 C2 1 2 1 2 1 Z " fill="#000000" transform="translate(77,106)"/>
<path d="M0 0 C2 1 2 1 2 1 Z " fill="#FFFFFF" transform="translate(159,105)"/>
<path d="M0 0 C2 1 2 1 2 1 Z " fill="#000000" transform="translate(79,105)"/>
<path d="" fill="#000000" transform="translate(0,0)"/>
<path d="M0 0 C2 1 2 1 2 1 Z " fill="#DFDFDF" transform="translate(92,104)"/>
<path d="" fill="#FFFFFF" transform="translate(0,0)"/>
<path d="M0 0 C2 1 2 1 2 1 Z " fill="#FFFFFF" transform="translate(47,96)"/>
<path d="M0 0 C2 1 2 1 2 1 Z " fill="#FFFFFF" transform="translate(23,94)"/>
<path d="M0 0 C2 1 2 1 2 1 Z " fill="#B4B4B4" transform="translate(21,93)"/>
<path d="M0 0 C2 1 2 1 2 1 Z " fill="#FFFFFF" transform="translate(17,93)"/>
<path d="M0 0 C2 1 2 1 2 1 Z " fill="#FFFFFF" transform="translate(19,92)"/>
<path d="M0 0 C2 1 2 1 2 1 Z " fill="#DFDFDF" transform="translate(225,86)"/>
<path d="M0 0 C2 1 2 1 2 1 Z " fill="#DFFFFF" transform="translate(220,86)"/>
<path d="" fill="#DFFFFF" transform="translate(0,0)"/>
<path d="" fill="#FFFFFF" transform="translate(0,0)"/>
<path d="" fill="#FFFFFF" transform="translate(0,0)"/>
<path d="" fill="#DFDFDF" transform="translate(0,0)"/>
<path d="M0 0 C2 1 2 1 2 1 Z " fill="#FFFFFF" transform="translate(226,74)"/>
<path d="M0 0 C2 1 2 1 2 1 Z " fill="#FFFFFF" transform="translate(219,74)"/>
<path d="" fill="#000000" transform="translate(0,0)"/>
<path d="" fill="#000000" transform="translate(0,0)"/>
<path d="" fill="#000000" transform="translate(0,0)"/>
<path d="" fill="#000000" transform="translate(0,0)"/>
<path d="" fill="#000000" transform="translate(0,0)"/>
<path d="" fill="#000000" transform="translate(0,0)"/>
<path d="" fill="#000000" transform="translate(0,0)"/>
<path d="" fill="#000000" transform="translate(0,0)"/>
<path d="" fill="#000000" transform="translate(0,0)"/>
<path d="" fill="#000000" transform="translate(0,0)"/>
<path d="" fill="#000000" transform="translate(0,0)"/>
<path d="M0 0 C2 1 2 1 2 1 Z " fill="#FFFFFF" transform="translate(203,51)"/>
<path d="M0 0 C2 1 2 1 2 1 Z " fill="#D4D4D4" transform="translate(200,51)"/>
<path d="" fill="#000000" transform="translate(0,0)"/>
<path d="" fill="#000000" transform="translate(0,0)"/>
<path d="" fill="#000000" transform="translate(0,0)"/>
<path d="" fill="#AA0000" transform="translate(0,0)"/>
<path d="" fill="#AA0000" transform="translate(0,0)"/>
<path d="" fill="#000000" transform="translate(0,0)"/>
<path d="" fill="#9F0000" transform="translate(0,0)"/>
<path d="" fill="#9F0000" transform="translate(0,0)"/>
<path d="" fill="#000000" transform="translate(0,0)"/>
<path d="" fill="#950000" transform="translate(0,0)"/>
<path d="" fill="#950000" transform="translate(0,0)"/>
<path d="M0 0 C2 1 2 1 2 1 Z " fill="#FFFFFF" transform="translate(28,43)"/>
<path d="M0 0 C2 1 2 1 2 1 Z " fill="#000000" transform="translate(180,42)"/>
<path d="M0 0 C2 1 2 1 2 1 Z " fill="#000000" transform="translate(92,42)"/>
<path d="M0 0 C2 1 2 1 2 1 Z " fill="#DFFFFF" transform="translate(31,42)"/>
<path d="M0 0 C2 1 2 1 2 1 Z " fill="#FFFFFF" transform="translate(26,42)"/>
<path d="" fill="#BF0000" transform="translate(0,0)"/>
<path d="" fill="#BF0000" transform="translate(0,0)"/>
<path d="M0 0 C2 1 2 1 2 1 Z " fill="#D4D4D4" transform="translate(24,41)"/>
<path d="M0 0 C2 1 2 1 2 1 Z " fill="#000000" transform="translate(177,40)"/>
<path d="M0 0 C2 1 2 1 2 1 Z " fill="#000000" transform="translate(89,40)"/>
<path d="M0 0 C2 1 2 1 2 1 Z " fill="#000000" transform="translate(77,40)"/>
<path d="M0 0 C2 1 2 1 2 1 Z " fill="#FFFFFF" transform="translate(34,40)"/>
<path d="" fill="#FFFFFF" transform="translate(0,0)"/>
<path d="" fill="#FFFFFF" transform="translate(0,0)"/>
<path d="M0 0 C2 1 2 1 2 1 Z " fill="#BFBFFF" transform="translate(246,36)"/>
<path d="" fill="#FFFFFF" transform="translate(0,0)"/>
<path d="" fill="#9F9FDF" transform="translate(0,0)"/>
<path d="" fill="#FFFFFF" transform="translate(0,0)"/>
<path d="" fill="#DFDFDF" transform="translate(0,0)"/>
<path d="" fill="#BFBFBF" transform="translate(0,0)"/>
<path d="" fill="#FFFFFF" transform="translate(0,0)"/>
<path d="" fill="#BFBFBF" transform="translate(0,0)"/>
<path d="M0 0 C2 1 2 1 2 1 Z " fill="#FFFFFF" transform="translate(242,27)"/>
<path d="M0 0 C2 1 2 1 2 1 Z " fill="#BFFFFF" transform="translate(244,26)"/>
<path d="" fill="#BFBFFF" transform="translate(0,0)"/>
<path d="M0 0 C2 1 2 1 2 1 Z " fill="#FFFFFF" transform="translate(169,22)"/>
<path d="" fill="#BFBFBF" transform="translate(0,0)"/>
<path d="" fill="#BFFFFF" transform="translate(0,0)"/>
<path d="" fill="#FFFFFF" transform="translate(0,0)"/>
<path d="" fill="#FFFFFF" transform="translate(0,0)"/>
<path d="" fill="#D4D4D4" transform="translate(0,0)"/>
<path d="" fill="#FFFFFF" transform="translate(0,0)"/>
<path d="" fill="#FFFFFF" transform="translate(0,0)"/>
<path d="" fill="#BFBFBF" transform="translate(0,0)"/>
<path d="M0 0 C2 1 2 1 2 1 Z " fill="#FFFFFF" transform="translate(211,14)"/>
<path d="M0 0 C2 1 2 1 2 1 Z " fill="#9FDFDF" transform="translate(207,14)"/>
<path d="" fill="#FFFFFF" transform="translate(0,0)"/>
<path d="M0 0 C2 1 2 1 2 1 Z " fill="#7FFFFF" transform="translate(209,13)"/>
<path d="M0 0 C2 1 2 1 2 1 Z " fill="#BFBFBF" transform="translate(136,12)"/>
<path d="M0 0 C2 1 2 1 2 1 Z " fill="#FFFFFF" transform="translate(134,11)"/>
<path d="M0 0 C2 1 2 1 2 1 Z " fill="#FFFFFF" transform="translate(119,11)"/>
<path d="M0 0 C2 1 2 1 2 1 Z " fill="#FFFFFF" transform="translate(83,11)"/>
<path d="" fill="#000000" transform="translate(0,0)"/>
<path d="" fill="#000000" transform="translate(0,0)"/>
<path d="" fill="#BFBFBF" transform="translate(0,0)"/>
<path d="" fill="#AAFFFF" transform="translate(0,0)"/>
<path d="" fill="#AAAAFF" transform="translate(0,0)"/>
<path d="" fill="#AAFFFF" transform="translate(0,0)"/>
<path d="" fill="#AAFFFF" transform="translate(0,0)"/>
<path d="" fill="#FF8080" transform="translate(0,0)"/>
<path d="" fill="#FF8080" transform="translate(0,0)"/>
<path d="" fill="#FFFFFF" transform="translate(0,0)"/>
<path d="" fill="#BFBFBF" transform="translate(0,0)"/>
<path d="" fill="#80FFFF" transform="translate(0,0)"/>
<path d="" fill="#AAAAAA" transform="translate(0,0)"/>
<path d="" fill="#FFFFFF" transform="translate(0,0)"/>
<path d="" fill="#AAAAAA" transform="translate(0,0)"/>
<path d="" fill="#FFFFFF" transform="translate(0,0)"/>
<path d="" fill="#FFFFFF" transform="translate(0,0)"/>
<path d="" fill="#FFFFFF" transform="translate(0,0)"/>
<path d="" fill="#FFFFFF" transform="translate(0,0)"/>
<path d="" fill="#FF5555" transform="translate(0,0)"/>
<path d="" fill="#FF8080" transform="translate(0,0)"/>
<path d="" fill="#000000" transform="translate(0,0)"/>
<path d="" fill="#000000" transform="translate(0,0)"/>
<path d="" fill="#AAFFFF" transform="translate(0,0)"/>
<path d="" fill="#FFFFFF" transform="translate(0,0)"/>
<path d="" fill="#000000" transform="translate(0,0)"/>
<path d="" fill="#FFFFFF" transform="translate(0,0)"/>
<path d="" fill="#AAAAFF" transform="translate(0,0)"/>
<path d="" fill="#FFFFFF" transform="translate(0,0)"/>
<path d="" fill="#000000" transform="translate(0,0)"/>
<path d="" fill="#AAFFFF" transform="translate(0,0)"/>
<path d="" fill="#BFBFFF" transform="translate(0,0)"/>
<path d="" fill="#000000" transform="translate(0,0)"/>
<path d="" fill="#000000" transform="translate(0,0)"/>
<path d="" fill="#000000" transform="translate(0,0)"/>
<path d="" fill="#000000" transform="translate(0,0)"/>
<path d="" fill="#000000" transform="translate(0,0)"/>
<path d="" fill="#000000" transform="translate(0,0)"/>
<path d="" fill="#000000" transform="translate(0,0)"/>
<path d="" fill="#000000" transform="translate(0,0)"/>
<path d="" fill="#000000" transform="translate(0,0)"/>
<path d="" fill="#FFFFFF" transform="translate(0,0)"/>
<path d="" fill="#000000" transform="translate(0,0)"/>
<path d="" fill="#000000" transform="translate(0,0)"/>
<path d="" fill="#FFFFFF" transform="translate(0,0)"/>
<path d="" fill="#FFFFFF" transform="translate(0,0)"/>
<path d="" fill="#000000" transform="translate(0,0)"/>
<path d="" fill="#FFFFFF" transform="translate(0,0)"/>
<path d="" fill="#BFBFBF" transform="translate(0,0)"/>
<path d="" fill="#000000" transform="translate(0,0)"/>
<path d="" fill="#AAFFFF" transform="translate(0,0)"/>
<path d="" fill="#FFFFFF" transform="translate(0,0)"/>
<path d="" fill="#000000" transform="translate(0,0)"/>
<path d="" fill="#AAFFFF" transform="translate(0,0)"/>
<path d="" fill="#AAFFFF" transform="translate(0,0)"/>
<path d="" fill="#000000" transform="translate(0,0)"/>
<path d="" fill="#000000" transform="translate(0,0)"/>
<path d="" fill="#FFFFFF" transform="translate(0,0)"/>
<path d="" fill="#FFFFFF" transform="translate(0,0)"/>
<path d="" fill="#000000" transform="translate(0,0)"/>
<path d="" fill="#000000" transform="translate(0,0)"/>
<path d="" fill="#000000" transform="translate(0,0)"/>
<path d="" fill="#000000" transform="translate(0,0)"/>
<path d="" fill="#000000" transform="translate(0,0)"/>
<path d="" fill="#000000" transform="translate(0,0)"/>
<path d="" fill="#000000" transform="translate(0,0)"/>
<path d="" fill="#000000" transform="translate(0,0)"/>
<path d="" fill="#000000" transform="translate(0,0)"/>
<path d="" fill="#000000" transform="translate(0,0)"/>
<path d="" fill="#000000" transform="translate(0,0)"/>
<path d="" fill="#000000" transform="translate(0,0)"/>
<path d="" fill="#000000" transform="translate(0,0)"/>
<path d="" fill="#000000" transform="translate(0,0)"/>
<path d="" fill="#000000" transform="translate(0,0)"/>
<path d="" fill="#000000" transform="translate(0,0)"/>
<path d="" fill="#000000" transform="translate(0,0)"/>
<path d="" fill="#000000" transform="translate(0,0)"/>
<path d="" fill="#000000" transform="translate(0,0)"/>
<path d="" fill="#000000" transform="translate(0,0)"/>
<path d="" fill="#000000" transform="translate(0,0)"/>
<path d="" fill="#000000" transform="translate(0,0)"/>
<path d="" fill="#000000" transform="translate(0,0)"/>
<path d="" fill="#000000" transform="translate(0,0)"/>
<path d="" fill="#000000" transform="translate(0,0)"/>
<path d="" fill="#000000" transform="translate(0,0)"/>
<path d="" fill="#000000" transform="translate(0,0)"/>
<path d="" fill="#000000" transform="translate(0,0)"/>
<path d="" fill="#000000" transform="translate(0,0)"/>
<path d="" fill="#000000" transform="translate(0,0)"/>
<path d="" fill="#000000" transform="translate(0,0)"/>
<path d="" fill="#000000" transform="translate(0,0)"/>
<path d="" fill="#000000" transform="translate(0,0)"/>
<path d="" fill="#000000" transform="translate(0,0)"/>
<path d="" fill="#000000" transform="translate(0,0)"/>
<path d="" fill="#000000" transform="translate(0,0)"/>
<path d="" fill="#000000" transform="translate(0,0)"/>
<path d="" fill="#000000" transform="translate(0,0)"/>
<path d="" fill="#000000" transform="translate(0,0)"/>
<path d="" fill="#000000" transform="translate(0,0)"/>
<path d="" fill="#000000" transform="translate(0,0)"/>
<path d="" fill="#000000" transform="translate(0,0)"/>
<path d="" fill="#000000" transform="translate(0,0)"/>
<path d="" fill="#AAAAAA" transform="translate(0,0)"/>
<path d="" fill="#80FFFF" transform="translate(0,0)"/>
<path d="" fill="#000000" transform="translate(0,0)"/>
<path d="" fill="#000000" transform="translate(0,0)"/>
<path d="" fill="#000000" transform="translate(0,0)"/>
<path d="" fill="#FFFFFF" transform="translate(0,0)"/>
<path d="" fill="#000000" transform="translate(0,0)"/>
<path d="" fill="#AAAAAA" transform="translate(0,0)"/>
<path d="" fill="#000000" transform="translate(0,0)"/>
<path d="" fill="#000000" transform="translate(0,0)"/>
<path d="" fill="#000000" transform="translate(0,0)"/>
<path d="" fill="#000000" transform="translate(0,0)"/>
<path d="" fill="#000000" transform="translate(0,0)"/>
<path d="" fill="#000000" transform="translate(0,0)"/>
<path d="" fill="#000000" transform="translate(0,0)"/>
<path d="" fill="#000000" transform="translate(0,0)"/>
<path d="" fill="#FFFFFF" transform="translate(0,0)"/>
<path d="" fill="#000000" transform="translate(0,0)"/>
<path d="" fill="#FFFFFF" transform="translate(0,0)"/>
<path d="" fill="#FFFFFF" transform="translate(0,0)"/>
<path d="" fill="#000000" transform="translate(0,0)"/>
<path d="" fill="#000000" transform="translate(0,0)"/>
<path d="" fill="#000000" transform="translate(0,0)"/>
<path d="" fill="#000000" transform="translate(0,0)"/>
<path d="" fill="#000000" transform="translate(0,0)"/>
<path d="" fill="#000000" transform="translate(0,0)"/>
<path d="" fill="#000000" transform="translate(0,0)"/>
<path d="" fill="#000000" transform="translate(0,0)"/>
<path d="" fill="#000000" transform="translate(0,0)"/>
<path d="" fill="#000000" transform="translate(0,0)"/>
<path d="" fill="#000000" transform="translate(0,0)"/>
<path d="" fill="#000000" transform="translate(0,0)"/>
<path d="" fill="#000000" transform="translate(0,0)"/>
<path d="" fill="#000000" transform="translate(0,0)"/>
<path d="" fill="#000000" transform="translate(0,0)"/>
<path d="" fill="#000000" transform="translate(0,0)"/>
<path d="" fill="#BFBFBF" transform="translate(0,0)"/>
<path d="" fill="#BFBFBF" transform="translate(0,0)"/>
<path d="" fill="#BFBFBF" transform="translate(0,0)"/>
<path d="" fill="#000000" transform="translate(0,0)"/>
<path d="" fill="#BFBFBF" transform="translate(0,0)"/>
<path d="" fill="#000000" transform="translate(0,0)"/>
<path d="" fill="#BFBFBF" transform="translate(0,0)"/>
<path d="" fill="#AAAAAA" transform="translate(0,0)"/>
<path d="" fill="#FFFFFF" transform="translate(0,0)"/>
<path d="" fill="#000000" transform="translate(0,0)"/>
<path d="" fill="#AAAAAA" transform="translate(0,0)"/>
<path d="" fill="#AAFFFF" transform="translate(0,0)"/>
<path d="" fill="#000000" transform="translate(0,0)"/>
<path d="" fill="#000000" transform="translate(0,0)"/>
<path d="" fill="#BFBFBF" transform="translate(0,0)"/>
<path d="" fill="#000000" transform="translate(0,0)"/>
<path d="" fill="#000000" transform="translate(0,0)"/>
<path d="" fill="#000000" transform="translate(0,0)"/>
<path d="" fill="#000000" transform="translate(0,0)"/>
<path d="" fill="#000000" transform="translate(0,0)"/>
<path d="" fill="#000000" transform="translate(0,0)"/>
<path d="" fill="#000000" transform="translate(0,0)"/>
<path d="" fill="#FFFFFF" transform="translate(0,0)"/>
<path d="" fill="#000000" transform="translate(0,0)"/>
<path d="" fill="#000000" transform="translate(0,0)"/>
<path d="" fill="#BFBFBF" transform="translate(0,0)"/>
<path d="" fill="#000000" transform="translate(0,0)"/>
<path d="" fill="#FFFFFF" transform="translate(0,0)"/>
<path d="" fill="#FFFFFF" transform="translate(0,0)"/>
<path d="" fill="#FFFFFF" transform="translate(0,0)"/>
<path d="" fill="#000000" transform="translate(0,0)"/>
<path d="" fill="#000000" transform="translate(0,0)"/>
<path d="" fill="#000000" transform="translate(0,0)"/>
<path d="" fill="#000000" transform="translate(0,0)"/>
<path d="" fill="#000000" transform="translate(0,0)"/>
<path d="" fill="#000000" transform="translate(0,0)"/>
<path d="" fill="#000000" transform="translate(0,0)"/>
<path d="" fill="#FFFFFF" transform="translate(0,0)"/>
<path d="" fill="#000000" transform="translate(0,0)"/>
<path d="" fill="#000000" transform="translate(0,0)"/>
<path d="" fill="#000000" transform="translate(0,0)"/>
<path d="" fill="#000000" transform="translate(0,0)"/>
<path d="" fill="#000000" transform="translate(0,0)"/>
<path d="" fill="#000000" transform="translate(0,0)"/>
<path d="" fill="#000000" transform="translate(0,0)"/>
<path d="" fill="#000000" transform="translate(0,0)"/>
<path d="" fill="#AAFFFF" transform="translate(0,0)"/>
<path d="" fill="#FFFFFF" transform="translate(0,0)"/>
<path d="" fill="#FFFFFF" transform="translate(0,0)"/>
<path d="" fill="#FFFFFF" transform="translate(0,0)"/>
<path d="" fill="#FFFFFF" transform="translate(0,0)"/>
<path d="" fill="#808080" transform="translate(0,0)"/>
<path d="" fill="#FFFFFF" transform="translate(0,0)"/>
<path d="" fill="#FFFFFF" transform="translate(0,0)"/>
<path d="" fill="#AAAAAA" transform="translate(0,0)"/>
<path d="" fill="#FFFFFF" transform="translate(0,0)"/>
<path d="" fill="#80FFFF" transform="translate(0,0)"/>
<path d="" fill="#FFFFFF" transform="translate(0,0)"/>
<path d="" fill="#808080" transform="translate(0,0)"/>
<path d="" fill="#FFFFFF" transform="translate(0,0)"/>
<path d="" fill="#FFFFFF" transform="translate(0,0)"/>
<path d="" fill="#FFFFFF" transform="translate(0,0)"/>
<path d="" fill="#FFFFFF" transform="translate(0,0)"/>
<path d="" fill="#000000" transform="translate(0,0)"/>
<path d="" fill="#000000" transform="translate(0,0)"/>
<path d="" fill="#80FFFF" transform="translate(0,0)"/>
<path d="" fill="#FFFFFF" transform="translate(0,0)"/>
<path d="" fill="#FFFFFF" transform="translate(0,0)"/>
<path d="" fill="#808080" transform="translate(0,0)"/>
<path d="" fill="#808080" transform="translate(0,0)"/>
<path d="" fill="#808080" transform="translate(0,0)"/>
<path d="" fill="#808080" transform="translate(0,0)"/>
<path d="" fill="#AAAAAA" transform="translate(0,0)"/>
<path d="" fill="#FFFFFF" transform="translate(0,0)"/>
<path d="" fill="#FFFFFF" transform="translate(0,0)"/>
<path d="" fill="#80FFFF" transform="translate(0,0)"/>
<path d="" fill="#FFFFFF" transform="translate(0,0)"/>
<path d="" fill="#FFFFFF" transform="translate(0,0)"/>
<path d="" fill="#808080" transform="translate(0,0)"/>
<path d="" fill="#FFFFFF" transform="translate(0,0)"/>
<path d="" fill="#FFFFFF" transform="translate(0,0)"/>
<path d="" fill="#FFFFFF" transform="translate(0,0)"/>
<path d="" fill="#000000" transform="translate(0,0)"/>
<path d="" fill="#FFFFFF" transform="translate(0,0)"/>
<path d="" fill="#FFFFFF" transform="translate(0,0)"/>
<path d="" fill="#FFFFFF" transform="translate(0,0)"/>
<path d="" fill="#000000" transform="translate(0,0)"/>
<path d="" fill="#000000" transform="translate(0,0)"/>
<path d="" fill="#000000" transform="translate(0,0)"/>
<path d="" fill="#000000" transform="translate(0,0)"/>
<path d="" fill="#000000" transform="translate(0,0)"/>
<path d="" fill="#000000" transform="translate(0,0)"/>
<path d="" fill="#000000" transform="translate(0,0)"/>
<path d="" fill="#BF0000" transform="translate(0,0)"/>
<path d="" fill="#BF0000" transform="translate(0,0)"/>
<path d="" fill="#000000" transform="translate(0,0)"/>
<path d="" fill="#000000" transform="translate(0,0)"/>
<path d="" fill="#000000" transform="translate(0,0)"/>
<path d="" fill="#000000" transform="translate(0,0)"/>
<path d="" fill="#000000" transform="translate(0,0)"/>
<path d="" fill="#000000" transform="translate(0,0)"/>
<path d="" fill="#990000" transform="translate(0,0)"/>
<path d="" fill="#990000" transform="translate(0,0)"/>
<path d="" fill="#000000" transform="translate(0,0)"/>
<path d="" fill="#000000" transform="translate(0,0)"/>
<path d="" fill="#000000" transform="translate(0,0)"/>
<path d="" fill="#000000" transform="translate(0,0)"/>
<path d="" fill="#000000" transform="translate(0,0)"/>
<path d="" fill="#BFBFBF" transform="translate(0,0)"/>
<path d="" fill="#FFFFFF" transform="translate(0,0)"/>
<path d="" fill="#BF0000" transform="translate(0,0)"/>
<path d="" fill="#BF0000" transform="translate(0,0)"/>
<path d="" fill="#BFBFBF" transform="translate(0,0)"/>
<path d="" fill="#FFFFFF" transform="translate(0,0)"/>
<path d="" fill="#FFFFFF" transform="translate(0,0)"/>
<path d="" fill="#AA0000" transform="translate(0,0)"/>
<path d="" fill="#AA0000" transform="translate(0,0)"/>
<path d="" fill="#D5AAAA" transform="translate(0,0)"/>
<path d="" fill="#AA5555" transform="translate(0,0)"/>
<path d="" fill="#AAFFFF" transform="translate(0,0)"/>
<path d="" fill="#FFFFFF" transform="translate(0,0)"/>
<path d="" fill="#BFFFFF" transform="translate(0,0)"/>
<path d="" fill="#FFFFFF" transform="translate(0,0)"/>
<path d="" fill="#FFFFFF" transform="translate(0,0)"/>
<path d="" fill="#FFFFFF" transform="translate(0,0)"/>
<path d="" fill="#BFBFBF" transform="translate(0,0)"/>
<path d="" fill="#FFFFFF" transform="translate(0,0)"/>
<path d="" fill="#FFFFFF" transform="translate(0,0)"/>
<path d="" fill="#BFBFBF" transform="translate(0,0)"/>
<path d="" fill="#FFFFFF" transform="translate(0,0)"/>
<path d="" fill="#FFFFFF" transform="translate(0,0)"/>
<path d="" fill="#BFBFBF" transform="translate(0,0)"/>
<path d="" fill="#BFBFBF" transform="translate(0,0)"/>
<path d="" fill="#AAAAFF" transform="translate(0,0)"/>
<path d="" fill="#AAAAAA" transform="translate(0,0)"/>
<path d="" fill="#AAFFFF" transform="translate(0,0)"/>
<path d="" fill="#FFFFFF" transform="translate(0,0)"/>
<path d="" fill="#BFBFBF" transform="translate(0,0)"/>
<path d="" fill="#808080" transform="translate(0,0)"/>
<path d="" fill="#FFFFFF" transform="translate(0,0)"/>
<path d="" fill="#FFFFFF" transform="translate(0,0)"/>
<path d="" fill="#AAAAAA" transform="translate(0,0)"/>
<path d="" fill="#FFFFFF" transform="translate(0,0)"/>
<path d="" fill="#BFBFBF" transform="translate(0,0)"/>
<path d="" fill="#FFFFFF" transform="translate(0,0)"/>
<path d="" fill="#BFBFBF" transform="translate(0,0)"/>
<path d="" fill="#FFFFFF" transform="translate(0,0)"/>
<path d="" fill="#AAAAAA" transform="translate(0,0)"/>
<path d="" fill="#FFFFFF" transform="translate(0,0)"/>
<path d="" fill="#AAFFFF" transform="translate(0,0)"/>
<path d="" fill="#FFFFFF" transform="translate(0,0)"/>
<path d="" fill="#AAFFFF" transform="translate(0,0)"/>
<path d="" fill="#AAAAAA" transform="translate(0,0)"/>
<path d="" fill="#FFFFFF" transform="translate(0,0)"/>
<path d="" fill="#FFFFFF" transform="translate(0,0)"/>
<path d="" fill="#AAFFFF" transform="translate(0,0)"/>
<path d="" fill="#FFFFFF" transform="translate(0,0)"/>
<path d="" fill="#8080FF" transform="translate(0,0)"/>
<path d="" fill="#AAAAAA" transform="translate(0,0)"/>
<path d="" fill="#FFFFFF" transform="translate(0,0)"/>
<path d="" fill="#FFFFFF" transform="translate(0,0)"/>
<path d="" fill="#FFFFFF" transform="translate(0,0)"/>
<path d="" fill="#AAFFFF" transform="translate(0,0)"/>
<path d="" fill="#BFBFBF" transform="translate(0,0)"/>
<path d="" fill="#80FFFF" transform="translate(0,0)"/>
<path d="" fill="#FFFFFF" transform="translate(0,0)"/>
<path d="" fill="#AAAAAA" transform="translate(0,0)"/>
</svg>
